<svg width="293" height="251" viewBox="0 0 293 251" fill="none" xmlns="http://www.w3.org/2000/svg">
<path d="M184.104 186.997L186.704 187.463C189.466 187.955 191.303 190.594 190.81 193.355L190.333 196.022C189.84 198.783 187.201 200.621 184.441 200.128L181.841 199.663C179.08 199.17 177.241 196.531 177.734 193.77L178.211 191.104C178.704 188.342 181.343 186.503 184.104 186.997ZM201.399 115.244C208.154 116.45 212.831 119.787 215.433 125.25C217.505 129.565 218.081 134.299 217.159 139.454C215.618 148.076 210.248 155.578 201.05 161.959C197.842 164.183 195.829 167.08 195.006 170.648C194.703 171.831 194.42 173.157 194.158 174.623C193.664 177.385 191.026 179.223 188.265 178.729L185.665 178.265C182.904 177.771 181.065 175.133 181.558 172.372V172.371C182.965 164.505 185.942 159.008 190.491 155.876C195.407 152.489 199.032 148.758 201.366 144.68C202.708 142.306 203.629 139.719 204.13 136.919C204.645 134.03 204.406 131.649 203.412 129.773C202.329 127.609 200.403 126.462 197.629 126.332C195.04 126.192 192.903 127.621 191.221 130.623C191.136 130.767 191.053 130.916 190.972 131.068C189.78 133.285 187.131 134.284 184.767 133.419L182.449 132.57C179.58 131.52 178.272 128.185 179.674 125.471C181.066 122.773 182.903 120.485 185.183 118.605C187.655 116.571 190.809 115.345 194.645 114.93C196.658 114.695 198.909 114.798 201.399 115.244Z" fill="#AEDBED"/>
<path d="M85.3832 197.638L87.5421 197.741C89.835 197.85 91.6061 199.797 91.4962 202.09L91.3909 204.305C91.2817 206.598 89.3341 208.368 87.0413 208.26L84.8823 208.157C82.5895 208.047 80.8191 206.1 80.9283 203.807L81.0335 201.592C81.1427 199.299 83.0903 197.528 85.3832 197.638ZM91.8499 137.577C97.459 137.844 101.607 140.057 104.295 144.217C106.431 147.5 107.398 151.283 107.195 155.563C106.854 162.724 103.287 169.379 96.4945 175.528C94.1258 177.672 92.7974 180.235 92.5071 183.218C92.3848 184.21 92.295 185.316 92.237 186.534C92.1278 188.827 90.181 190.597 87.8873 190.489L85.7284 190.386C83.4348 190.276 81.6652 188.329 81.7736 186.036C82.0848 179.503 83.9217 174.727 87.2836 171.705C90.9156 168.438 93.4639 165.027 94.9285 161.471C95.7668 159.402 96.2413 157.206 96.352 154.881C96.4666 152.482 96.0207 150.574 95.0152 149.158C93.909 147.515 92.2238 146.787 89.9596 146.975C87.8432 147.133 86.2602 148.519 85.2113 151.132C85.1579 151.259 85.106 151.389 85.0557 151.52C84.3227 153.446 82.2783 154.535 80.2687 154.082L78.2979 153.639C75.858 153.089 74.4452 150.521 75.296 148.17C76.1413 145.833 77.3899 143.782 79.0426 142.016C80.8346 140.105 83.2652 138.777 86.3345 138.036C87.9439 137.631 89.7823 137.478 91.8499 137.577Z" fill="#AEDBED"/>
<path d="M123.464 111.216L125.111 110.927C126.859 110.62 128.525 111.789 128.832 113.537L129.128 115.226C129.435 116.973 128.267 118.64 126.518 118.947L124.872 119.235C123.124 119.543 121.457 118.374 121.15 116.625L120.854 114.938C120.547 113.189 121.716 111.522 123.464 111.216ZM118.149 64.8097C122.426 64.0588 125.931 65.0249 128.665 67.7071C130.834 69.8212 132.205 72.5104 132.778 75.7739C133.736 81.2336 132.174 86.8589 128.094 92.6515C126.671 94.6703 126.104 96.8293 126.391 99.1283C126.468 99.8985 126.588 100.748 126.75 101.676C127.058 103.425 125.889 105.09 124.141 105.397L122.494 105.686C120.746 105.993 119.08 104.824 118.772 103.075C117.898 98.0949 118.474 94.1803 120.497 91.3309C122.682 88.2492 124.026 85.2434 124.527 82.3127C124.808 80.6097 124.793 78.8719 124.482 77.0992C124.162 75.27 123.501 73.9068 122.503 73.0089C121.39 71.9569 119.995 71.6937 118.318 72.2201C116.749 72.6985 115.789 74.0121 115.442 76.1625C115.423 76.267 115.406 76.3731 115.39 76.4815C115.164 78.0583 113.807 79.2279 112.214 79.2272L110.652 79.2264C108.719 79.2256 107.216 77.528 107.459 75.6098C107.701 73.704 108.294 71.9453 109.241 70.3328C110.269 68.5857 111.878 67.1722 114.067 66.0916C115.212 65.5141 116.572 65.086 118.149 64.8097Z" fill="#AEDBED"/>
<path d="M3.00516 160.813L4.09818 161.095C5.25854 161.395 5.95522 162.58 5.65488 163.74L5.36459 164.86C5.06424 166.021 3.87988 166.718 2.71952 166.418L1.6265 166.135C0.466136 165.834 -0.230547 164.65 0.0698005 163.49L0.360085 162.369C0.660433 161.209 1.84479 160.511 3.00516 160.813ZM12.7185 130.804C15.5571 131.54 17.4412 133.114 18.3717 135.527C19.1132 137.433 19.2038 139.469 18.6426 141.636C17.7044 145.259 15.1716 148.28 11.0433 150.698C9.60429 151.54 8.65139 152.709 8.18461 154.203C8.01663 154.697 7.85252 155.251 7.69306 155.868C7.39271 157.029 6.20835 157.726 5.04799 157.425L3.95574 157.143C2.79538 156.842 2.09792 155.658 2.39827 154.497C3.25442 151.191 4.70274 148.946 6.74402 147.761C8.94864 146.478 10.6153 145.007 11.7431 143.346C12.3918 142.378 12.8694 141.306 13.1736 140.129C13.4879 138.916 13.4639 137.893 13.1009 137.061C12.7115 136.103 11.9273 135.552 10.75 135.407C9.65151 135.261 8.69474 135.8 7.87962 137.025C7.83859 137.084 7.79834 137.145 7.75886 137.207C7.17829 138.112 6.01715 138.451 5.03792 138.005L4.07882 137.568C2.89059 137.026 2.44162 135.563 3.12824 134.452C3.80944 133.349 4.66636 132.434 5.699 131.707C6.81911 130.921 8.20319 130.502 9.85123 130.45C10.7167 130.415 11.6727 130.534 12.7185 130.804Z" fill="#AEDBED"/>
<path d="M45.936 165.601L49.3095 164.734C52.892 163.814 56.5419 165.973 57.4623 169.555L58.3502 173.015C59.2706 176.597 57.1116 180.248 53.5291 181.168L50.1556 182.034C46.5731 182.953 42.9233 180.795 42.0029 177.213L41.115 173.753C40.1946 170.17 42.3535 166.52 45.936 165.601ZM27.395 70.0545C36.1585 67.8042 43.5967 69.2448 49.709 74.3739C54.5563 78.4162 57.8393 83.7807 59.557 90.4688C62.4296 101.656 60.095 113.594 52.5538 126.286C49.9242 130.711 49.0943 135.288 50.0627 140.018C50.346 141.604 50.7323 143.349 51.2215 145.252C52.1412 148.835 49.983 152.484 46.4005 153.404L43.0262 154.27C39.4445 155.191 35.7939 153.032 34.8743 149.45C32.2532 139.243 32.8152 131.017 36.5579 124.77C40.6002 118.016 42.9055 111.555 43.4729 105.385C43.7825 101.802 43.4706 98.1943 42.5378 94.5614C41.5756 90.8148 39.9848 88.0885 37.7647 86.3839C35.2822 84.3798 32.3414 84.0586 28.9432 85.4225C25.7609 86.6703 23.9805 89.5546 23.6058 94.0769C23.5841 94.2967 23.5655 94.5212 23.5508 94.748C23.3349 98.0603 20.7045 100.709 17.3945 100.965L14.1495 101.216C10.1335 101.527 6.73833 98.243 6.93263 94.2185C7.12615 90.2211 8.07596 86.4699 9.78206 82.9671C11.6337 79.1733 14.7471 75.9763 19.1207 73.3776C21.4074 71.9928 24.1647 70.8843 27.395 70.0545Z" fill="#AEDBED"/>
<path d="M266.712 167.829L269.096 167.216C271.627 166.566 274.206 168.092 274.857 170.623L275.484 173.069C276.135 175.6 274.61 178.179 272.078 178.829L269.693 179.442C267.162 180.092 264.583 178.566 263.933 176.035L263.305 173.589C262.655 171.058 264.18 168.479 266.712 167.829ZM253.609 100.309C259.802 98.7185 265.059 99.7365 269.378 103.362C272.804 106.217 275.124 110.009 276.337 114.734C278.367 122.64 276.718 131.077 271.389 140.046C269.53 143.172 268.943 146.406 269.628 149.75C269.828 150.871 270.101 152.104 270.447 153.448C271.097 155.98 269.571 158.559 267.04 159.209L264.656 159.821C262.124 160.472 259.545 158.946 258.895 156.415C257.042 149.202 257.44 143.39 260.085 138.974C262.941 134.202 264.57 129.636 264.971 125.275C265.19 122.744 264.97 120.194 264.31 117.627C263.631 114.979 262.506 113.052 260.938 111.848C259.183 110.432 257.105 110.205 254.704 111.168C252.454 112.05 251.197 114.089 250.932 117.284C250.916 117.44 250.903 117.598 250.892 117.758C250.741 120.1 248.881 121.971 246.542 122.152L244.249 122.33C241.41 122.55 239.012 120.229 239.149 117.385C239.286 114.56 239.957 111.909 241.163 109.433C242.472 106.752 244.672 104.493 247.763 102.657C249.377 101.678 251.327 100.895 253.609 100.309Z" fill="#AEDBED"/>
<path d="M255.808 55.8092L257.126 55.4709C258.525 55.1118 259.951 55.954 260.31 57.3535L260.657 58.7051C261.017 60.1046 260.173 61.5305 258.775 61.8889L257.456 62.228C256.057 62.5872 254.631 61.7442 254.272 60.3446L253.925 58.9931C253.566 57.5943 254.409 56.1684 255.808 55.8092ZM248.566 18.4879C251.989 17.6085 254.895 18.1713 257.281 20.1754C259.176 21.7538 260.457 23.8493 261.129 26.4618C262.25 30.8308 261.339 35.4947 258.393 40.452C257.366 42.1813 257.042 43.9679 257.42 45.8157C257.531 46.4357 257.682 47.1169 257.873 47.8601C258.232 49.2596 257.389 50.6855 255.989 51.0447L254.672 51.383C253.272 51.7421 251.846 50.8991 251.487 49.5004C250.464 45.513 250.683 42.3005 252.145 39.8598C253.724 37.2217 254.625 34.6982 254.846 32.2876C254.967 30.8889 254.845 29.4792 254.481 28.0603C254.105 26.5965 253.484 25.5321 252.616 24.8657C251.647 24.0838 250.498 23.9576 249.17 24.4902C247.927 24.9779 247.232 26.105 247.086 27.8707C247.077 27.9574 247.069 28.0448 247.064 28.1331C246.98 29.4274 245.952 30.4616 244.66 30.5614L243.392 30.6597C241.823 30.7813 240.497 29.4986 240.573 27.9264C240.649 26.3651 241.02 24.8997 241.686 23.5319C242.409 22.0495 243.626 20.8001 245.334 19.7861C246.227 19.245 247.304 18.8115 248.566 18.4879Z" fill="#AEDBED"/>
<path d="M79.0088 79.0805C79.0088 79.0805 86.6336 41.9071 69.2599 43.7386L52.651 78.3204C52.651 78.3204 63.784 82.8836 79.0088 79.0805Z" fill="#361710"/>
<path d="M40.2987 79.0805C40.2987 79.0805 36.0722 48.9358 49.1853 41.2862L66.6566 78.3204C66.6566 78.3204 55.5244 82.8836 40.2987 79.0805Z" fill="#361710"/>
<path d="M13.3826 70.7444H15.4046C17.5519 70.7444 19.2928 72.4853 19.2928 74.6319V76.7057C19.2928 78.8538 17.5519 80.594 15.4046 80.594H13.3826C11.2353 80.594 9.49513 78.8538 9.49513 76.7057V74.6319C9.49513 72.4853 11.2353 70.7444 13.3826 70.7444ZM16.753 14.3425C22.0052 14.3425 25.9794 16.2259 28.6756 19.9926C30.8183 22.9651 31.8896 26.4555 31.8896 30.4645C31.8896 37.1697 28.8529 43.5459 22.7809 49.5939C20.663 51.7017 19.5359 54.1556 19.3973 56.9555C19.3277 57.8883 19.2928 58.924 19.2928 60.065C19.2928 62.2131 17.5519 63.9533 15.4046 63.9533H13.3826C11.2353 63.9533 9.49513 62.2131 9.49513 60.065C9.49513 53.9482 10.9984 49.4042 14.005 46.4317C17.2531 43.2169 19.4817 39.917 20.6924 36.5295C21.3829 34.5602 21.7289 32.4865 21.7289 30.3089C21.7289 28.0625 21.2281 26.3007 20.2256 25.0219C19.1194 23.5364 17.5124 22.9303 15.4046 23.2066C13.4345 23.4489 12.0171 24.8144 11.154 27.3024C11.1091 27.4231 11.0665 27.5462 11.0255 27.6716C10.4264 29.5039 8.56468 30.6124 6.6666 30.2795L4.80568 29.9521C2.50199 29.5465 1.06759 27.2102 1.75808 24.9754C2.44393 22.7553 3.51992 20.7837 4.9845 19.0591C6.57448 17.1935 8.78607 15.8458 11.6208 15.0167C13.1063 14.5678 14.8162 14.3425 16.753 14.3425Z" fill="#FCC822"/>
<path d="M61.756 223.457C61.756 223.457 60.7938 227.175 59.063 226.614C55.8273 225.569 55.6384 223.457 55.6384 223.457C55.6384 223.457 53.5979 229.609 53.9865 232.539C54.3751 235.469 53.9865 242.057 53.9865 242.057H56.9396C56.9396 242.057 59.7016 242.393 60.8465 244.058C61.9921 245.723 68.2661 245.229 70.2548 244.161C72.8023 242.793 66.1157 235.832 63.7501 231.953C61.3845 228.074 61.756 223.457 61.756 223.457Z" fill="#1C0906"/>
<path d="M56.2295 168.703C58.27 163.663 65.5496 163.72 67.3447 168.851C67.6683 169.776 67.9028 170.745 68.0561 171.725C68.8108 176.537 68.053 184.25 66.0659 194.101C63.3844 207.393 61.9353 233.907 57.2792 234.297C52.6222 234.687 55.3594 212.392 55.2619 199.208C55.1651 186.024 53.0875 176.464 56.036 169.183L56.2295 168.703Z" fill="#CF9166"/>
<path d="M58.9085 206.735C58.2714 189.344 59.4287 176.443 56.6543 167.273L56.4724 166.67C54.5519 160.323 48.6812 161.453 47.51 168.478C47.2994 169.744 47.1632 171.053 47.092 172.369C46.7452 178.821 47.7747 188.877 49.9128 201.573C52.7986 218.703 53.4999 234.459 57.279 234.297C61.0574 234.135 59.5456 224.127 58.9085 206.735Z" fill="#EDAC7C"/>
<path d="M53.6325 226.515C53.6325 226.515 54.4562 233.083 56.7482 232.686C59.0024 232.295 59.7494 226.515 59.7494 226.515C59.7494 226.515 61.7907 232.667 61.4021 235.597C61.183 237.248 61.2109 240.06 61.2767 242.201C61.3255 243.797 60.0459 245.114 58.4489 245.114C58.4489 245.114 55.687 245.45 54.5413 247.115C53.3964 248.781 47.1224 248.287 45.1338 247.219C42.5855 245.851 49.2728 238.89 51.6385 235.011C54.0041 231.132 53.6325 226.515 53.6325 226.515Z" fill="#361710"/>
<path d="M73.1669 126.857L58.3825 124.18V124.077L58.0992 124.129L57.8151 124.077V124.18L43.0315 126.857C43.0315 126.857 37.8033 134.644 38.8266 143.803C39.8492 152.962 44.5642 202.5 44.5642 202.5H70.0148C70.0148 202.5 76.3484 152.962 77.3718 143.803C78.3943 134.644 73.1669 126.857 73.1669 126.857Z" fill="#195172"/>
<path d="M74.9287 130.156C73.9959 128.093 73.1669 126.856 73.1669 126.856L58.3825 124.179V124.076L58.0991 124.128L57.8158 124.076V124.179L43.0314 126.856C43.0314 126.856 42.2024 128.093 41.2704 130.156H74.9287Z" fill="#0D435E"/>
<path d="M61.2784 202.499L61.4511 153.012L65.6892 202.499" fill="#0D435E"/>
<path d="M38.7043 140.848C40.1387 140.806 42.5555 140.521 46.0536 139.415C52.1867 137.476 52.2386 129.379 52.2386 129.379L52.0745 125.22L43.0315 126.857C43.0315 126.857 38.8917 133.03 38.7043 140.848Z" fill="#0D435E"/>
<path d="M77.4943 140.849C77.3078 133.03 73.1671 126.857 73.1671 126.857L63.5018 125.107L63.2549 129.379C63.2549 129.379 63.3067 137.475 69.4399 139.414C73.5968 140.729 76.2271 140.885 77.4943 140.849Z" fill="#0D435E"/>
<path d="M43.8572 84.8622L54.3601 80.5938L62.6026 80.6829L75.4812 86.0543C75.4812 86.0543 68.7682 109.13 69.2102 115.084C69.6522 121.039 73.1666 127.777 73.1666 127.777H43.8572C43.8572 127.777 49.1047 117.16 47.9529 110.896C46.8003 104.632 43.8572 84.8622 43.8572 84.8622Z" fill="#5C93BC"/>
<path d="M68.4981 48.786C64.9342 42.118 46.0935 39.7562 42.6295 60.7202C40.1036 75.9977 57.2916 79.6003 66.004 76.8027C80.8263 72.0436 72.0628 55.454 68.4981 48.786Z" fill="#3E150D"/>
<path d="M71.5652 62.9691C71.5652 62.9691 74.2288 59.5484 76.6804 61.7956C79.1327 64.0444 75.6284 70.9709 70.9327 69.3415L71.5652 62.9691Z" fill="#EDAC7C"/>
<path d="M71.3259 65.3834L70.9993 68.664C75.0609 69.3932 77.3786 63.7377 75.5107 62.9535C73.9996 62.3195 72.1248 64.3035 71.3259 65.3834Z" fill="#F7A588"/>
<path d="M76.1651 64.1253C76.1651 64.1253 76.1574 64.0998 76.145 64.0526C76.1326 64.0061 76.1102 63.9395 76.0839 63.8559C76.0227 63.6934 75.9182 63.4581 75.7193 63.2893C75.6697 63.2467 75.6117 63.2127 75.5521 63.184C75.5211 63.1709 75.4909 63.1562 75.4561 63.1453L75.4336 63.1376L75.4321 63.1368C75.4499 63.143 75.4359 63.1384 75.439 63.1399L75.4359 63.1384L75.4267 63.1368L75.4112 63.1329L75.3469 63.1151C75.3005 63.1012 75.2656 63.0966 75.2308 63.0911C75.1975 63.0849 75.1604 63.0795 75.117 63.0772C75.0783 63.0749 75.0381 63.0726 74.9986 63.0733C74.956 63.0733 74.9158 63.0718 74.874 63.0772C74.5403 63.1004 74.1873 63.2305 73.8514 63.4108C73.6803 63.4983 73.5177 63.6044 73.3567 63.7112C73.198 63.8196 73.0417 63.9318 72.8938 64.0448C72.5989 64.2732 72.3303 64.5031 72.0981 64.7013C71.6344 65.1107 71.3263 65.384 71.3263 65.384C71.3263 65.384 71.3658 65.2872 71.4525 65.1262C71.5407 64.9668 71.6731 64.7415 71.8581 64.4892C71.9518 64.3637 72.0539 64.2267 72.1732 64.0913C72.2916 63.955 72.4232 63.8149 72.5672 63.6779C72.8559 63.4046 73.1942 63.1353 73.5843 62.927C73.7794 62.8241 73.9861 62.7351 74.202 62.6747C74.4188 62.6143 74.6464 62.5818 74.8685 62.5903C74.9235 62.5911 74.9777 62.5957 75.0334 62.6035C75.0876 62.6066 75.1402 62.6189 75.1929 62.6306C75.2447 62.6406 75.2974 62.6561 75.3508 62.6739C75.4058 62.6909 75.4568 62.708 75.4925 62.7273L75.5536 62.756L75.5923 62.7738L75.6271 62.7923C75.6728 62.8163 75.7146 62.845 75.7549 62.8752C75.8331 62.9371 75.902 63.0052 75.9554 63.0772C76.0676 63.2181 76.1226 63.3698 76.1543 63.5006C76.1876 63.6307 76.1915 63.7468 76.193 63.8381C76.193 63.9303 76.1822 64.0038 76.1768 64.0518C76.169 64.1006 76.1651 64.1253 76.1651 64.1253Z" fill="#CF9166"/>
<path d="M46.8696 62.7014C46.8696 62.7014 44.2803 59.2257 41.7815 61.4195C39.2804 63.6133 42.6353 70.6149 47.3658 69.0869L46.8696 62.7014Z" fill="#EDAC7C"/>
<path d="M47.0573 65.1225L47.3127 68.4093C43.2371 69.0518 41.0418 63.3475 42.9267 62.6036C44.4494 62.0029 46.2824 64.0256 47.0573 65.1225Z" fill="#F7A588"/>
<path d="M42.2474 63.7604C42.2474 63.7604 42.2544 63.7364 42.2683 63.6892C42.2822 63.6419 42.3055 63.5761 42.3349 63.4925C42.3976 63.3307 42.5067 63.0985 42.7111 62.9336C42.7606 62.8926 42.8179 62.8601 42.8798 62.8322C42.9116 62.8206 42.9418 62.8059 42.9743 62.7966L43.0006 62.7889L43.0021 62.7881C42.9828 62.7951 42.9983 62.7889 42.9944 62.7904H42.9983L43.006 62.7873L43.0215 62.7835L43.0873 62.768C43.1322 62.7548 43.1686 62.751 43.2034 62.7463C43.2375 62.7401 43.2754 62.737 43.3172 62.7355C43.3567 62.7331 43.3954 62.7316 43.4364 62.7339C43.4774 62.7339 43.5185 62.7347 43.5603 62.7409C43.8924 62.7703 44.2438 62.9073 44.5759 63.0962C44.7439 63.1883 44.9056 63.2959 45.0643 63.4066C45.2199 63.5189 45.374 63.6342 45.5195 63.7511C45.8098 63.9856 46.073 64.221 46.3013 64.423C46.7557 64.8433 47.0576 65.1228 47.0576 65.1228C47.0576 65.1228 47.0197 65.0252 46.9361 64.8627C46.8533 64.7017 46.7248 64.4725 46.5444 64.2163C46.4546 64.0894 46.354 63.95 46.2379 63.8122C46.1217 63.6737 45.9956 63.5305 45.8539 63.3896C45.5714 63.1117 45.2393 62.8346 44.8538 62.617C44.6618 62.5118 44.4551 62.4181 44.2399 62.3531C44.0247 62.2873 43.7987 62.2501 43.5773 62.2532C43.5208 62.2524 43.4666 62.2579 43.4116 62.2633C43.3567 62.2656 43.304 62.2749 43.2499 62.2873C43.1995 62.295 43.1469 62.3089 43.0919 62.3268C43.0378 62.343 42.9867 62.3585 42.9495 62.3778L42.8884 62.4034L42.8497 62.4212L42.814 62.439C42.7676 62.4614 42.7242 62.4901 42.6832 62.5187C42.605 62.5799 42.5354 62.6457 42.4789 62.7161C42.3643 62.8562 42.3062 63.0064 42.2714 63.1349C42.235 63.265 42.2288 63.3803 42.2257 63.4732C42.2234 63.5661 42.2319 63.6388 42.2373 63.6868C42.2435 63.7348 42.2474 63.7604 42.2474 63.7604Z" fill="#CF9166"/>
<path d="M62.0523 73.4886L55.3665 73.4151C55.3665 73.4151 54.9965 83.8816 54.9717 83.8816C54.9717 83.8816 55.44 85.9747 58.4056 86.0529C61.3719 86.1303 62.1266 83.9574 62.1266 83.9574C62.1026 83.9001 62.0523 73.4886 62.0523 73.4886Z" fill="#EDAC7C"/>
<path d="M62.1267 77.3413L55.1568 77.1083C55.1568 77.1083 55.1173 80.9602 55.0925 80.9602C55.0925 80.9602 55.4672 83.4079 58.4335 83.4861C61.3998 83.5635 62.0973 81.3147 62.0973 81.3147C62.0741 81.2567 62.1267 77.3413 62.1267 77.3413Z" fill="#CF9166"/>
<path d="M62.0314 75.4132L55.3455 75.3405C55.3455 75.3405 55.2464 76.6765 55.1574 77.8137C55.1435 77.9778 57.0617 78.2897 57.2699 78.3246C58.9033 78.6017 60.5172 78.409 62.1142 78.0204C62.0747 76.8561 62.0314 75.4132 62.0314 75.4132Z" fill="#CF9166"/>
<path d="M74.975 60.2445C74.8853 68.5815 67.5786 75.2627 58.6556 75.1667C49.7327 75.0707 42.5723 68.2331 42.6613 59.8962C42.7511 51.5576 50.0578 44.8764 58.9815 44.9724C67.9037 45.0692 75.0656 51.906 74.975 60.2445Z" fill="#3E150D"/>
<path d="M73.2594 60.0212C73.1479 55.3751 71.198 50.9682 66.6277 49.1158C64.3039 48.173 61.744 47.9013 59.246 47.9144C56.7782 47.9284 54.1494 48.06 51.8201 48.9285C47.6493 50.4867 46.5168 47.9438 46.0485 52.182C46.0021 52.5969 45.4509 54.3719 44.8858 59.7155C44.7844 60.6676 44.7581 61.6135 44.7829 62.575C44.8401 64.7347 45.1598 66.9037 45.8426 68.9612C46.6693 71.4577 48.0704 73.7815 50.1264 75.4884C51.2945 76.4591 52.643 77.2069 54.0751 77.7301C56.4399 78.5917 58.6979 78.8928 61.1851 78.4624C62.8711 78.1714 64.5176 77.6388 66.0038 76.8036C68.4701 75.4179 70.3295 73.2427 71.503 70.7176C72.4892 68.5928 73.0163 66.2751 73.2261 63.9552C73.3407 62.6849 73.3794 61.3929 73.2687 60.1226C73.2656 60.0886 73.2602 60.0553 73.2594 60.0212Z" fill="#EDAC7C"/>
<path d="M63.3895 64.4156C63.3237 65.7347 64.2534 66.8517 65.4649 66.9113C66.6771 66.9709 67.712 65.9483 67.7786 64.6285C67.8444 63.3095 66.9163 62.1924 65.7033 62.1336C64.4918 62.074 63.4553 63.0966 63.3895 64.4156Z" fill="#CF9166"/>
<path d="M63.4171 63.8577C63.3505 65.1776 64.2802 66.2938 65.4916 66.3542C66.7046 66.4138 67.7396 65.3912 67.8054 64.0722C67.8727 62.7531 66.9438 61.6345 65.7308 61.5757C64.5194 61.5177 63.4829 62.5387 63.4171 63.8577Z" fill="black"/>
<path d="M64.2027 63.2473C64.1788 63.725 64.5542 64.1321 65.0395 64.1554C65.5264 64.1793 65.9398 63.8117 65.963 63.3333C65.9878 62.8557 65.6124 62.45 65.127 62.426C64.6409 62.4013 64.2267 62.7697 64.2027 63.2473Z" fill="white"/>
<path d="M50.302 63.9005C50.2362 65.2196 51.1651 66.3366 52.3766 66.3962C53.5896 66.4558 54.6245 65.4324 54.6903 64.1142C54.7569 62.7951 53.8288 61.6773 52.6158 61.6185C51.4051 61.5604 50.3678 62.5807 50.302 63.9005Z" fill="#CF9166"/>
<path d="M50.3303 63.3422C50.2637 64.662 51.1942 65.7782 52.4048 65.8386C53.6178 65.8974 54.6528 64.8764 54.7186 63.5558C54.7859 62.2375 53.8563 61.119 52.644 61.0609C51.4333 61.0021 50.3961 62.0239 50.3303 63.3422Z" fill="black"/>
<path d="M51.1159 62.7322C51.0927 63.2098 51.4658 63.617 51.9527 63.6402C52.4388 63.6642 52.853 63.2965 52.877 62.8174C52.9002 62.3397 52.5263 61.9333 52.0386 61.9101C51.5533 61.8861 51.1399 62.2538 51.1159 62.7322Z" fill="white"/>
<path d="M58.0352 62.446C58.0352 62.446 58.3573 65.3504 56.9894 65.1088C54.342 64.6459 54.3351 70.3193 58.3325 68.2068C59.8412 67.4102 59.3442 62.4854 59.3442 62.4854L58.0352 62.446Z" fill="#F48470"/>
<path d="M55.2303 70.7614C55.2303 70.7614 60.5569 71.6478 63.0882 68.5955C63.0882 68.5955 65.2161 74.2975 59.4971 75.0298C55.8845 75.4896 55.2303 70.7614 55.2303 70.7614Z" fill="#B43128"/>
<path d="M57.0414 74.3576C57.6467 74.8569 58.4464 75.1627 59.4968 75.0296C60.7942 74.8623 61.6859 74.4405 62.2936 73.8893C62.4678 73.7229 62.6226 73.5448 62.7635 73.3598C62.7673 73.356 62.7704 73.3513 62.7728 73.3475C62.7759 73.3444 62.7759 73.3428 62.7774 73.3413C63.2132 72.7243 63.4005 72.0176 63.4563 71.341C60.2423 70.5003 57.9386 73.013 57.0414 74.3576Z" fill="#F05736"/>
<path d="M55.2303 70.7618C55.2303 70.7618 55.2373 70.8029 55.2489 70.8748C55.7676 70.9817 56.7274 72.1087 58.0194 72.0638C58.8368 72.0368 59.638 71.8107 60.3734 71.4647C60.8301 71.2503 61.3008 71.0436 61.6956 70.727C61.9982 70.4855 62.2158 69.7694 62.3435 69.3267C59.6427 71.4949 55.2311 70.7618 55.2303 70.7618Z" fill="white"/>
<path d="M55.5865 71.0967C55.8171 72.1634 56.7081 75.098 59.4608 74.7458C60.9858 74.5522 62.0571 73.9701 62.6454 73.0195C63.4574 71.7067 63.1672 69.9843 62.9574 69.1653C60.6692 71.435 56.8413 71.2337 55.5865 71.0967ZM58.9669 75.3441C55.6081 75.3085 54.9502 70.849 54.9447 70.8002C54.9316 70.712 54.9625 70.6214 55.0291 70.5587C55.0957 70.496 55.187 70.4666 55.2792 70.4821C55.3302 70.4898 60.4718 71.3034 62.8637 68.416C62.9295 68.3378 63.0332 68.2976 63.1362 68.3154C63.2391 68.3324 63.3243 68.4021 63.3607 68.4988C63.4025 68.6111 64.3825 71.301 63.1424 73.3129C62.4589 74.4191 61.2451 75.0933 59.5351 75.3108C59.3362 75.3364 59.1488 75.3465 58.9669 75.3441Z" fill="#F05B4E"/>
<path d="M53.1578 70.4506C53.1446 71.6682 52.1306 72.6444 50.892 72.6304C49.6535 72.6173 48.6587 71.6195 48.6711 70.4018C48.6851 69.1842 49.6999 68.2088 50.9385 68.2212C52.177 68.2359 53.1709 69.2329 53.1578 70.4506Z" fill="#F49B77"/>
<path d="M69.2597 69.2067C69.2465 70.4243 68.2317 71.4012 66.9916 71.3873C65.7546 71.3741 64.7607 70.3771 64.7731 69.1587C64.787 67.9418 65.8011 66.9657 67.0396 66.9788C68.2782 66.9928 69.2729 67.9906 69.2597 69.2067Z" fill="#F49B77"/>
<path d="M48.7919 57.8757C48.7919 57.8757 48.8414 57.7844 48.9575 57.6427C49.0164 57.5746 49.0876 57.4856 49.1805 57.4004C49.2703 57.3098 49.3779 57.2154 49.5025 57.1179C49.6263 57.0211 49.7665 56.9236 49.9205 56.8291C50.0761 56.7386 50.2425 56.641 50.4252 56.5644C50.6025 56.4769 50.796 56.4096 50.9942 56.3438C51.1923 56.2757 51.4013 56.2377 51.6065 56.1843C51.8147 56.1518 52.0253 56.1201 52.2312 56.0999C52.4386 56.0883 52.6438 56.0829 52.8388 56.0837C53.037 56.0945 53.2266 56.1115 53.4047 56.1286C53.585 56.1495 53.7507 56.1905 53.904 56.2207C54.0557 56.2555 54.1943 56.2849 54.315 56.3314C54.435 56.3724 54.5395 56.4127 54.6239 56.4452C54.7919 56.5102 54.8863 56.5566 54.8863 56.5566C54.8863 56.5566 54.7795 56.5714 54.5999 56.5837C54.5101 56.5907 54.4017 56.6 54.2786 56.6031C54.1579 56.6039 54.0185 56.6201 53.8684 56.6325C53.7197 56.6457 53.5595 56.6457 53.3915 56.6642C53.2228 56.6828 53.0478 56.6999 52.8659 56.713C52.6856 56.737 52.5013 56.7649 52.3109 56.7858C52.1251 56.8175 51.937 56.8493 51.7474 56.8825C51.6529 56.9027 51.56 56.9243 51.4671 56.9437C51.3727 56.9638 51.2798 56.9793 51.19 57.0064C51.0987 57.0312 51.0073 57.0536 50.9175 57.0753C50.8262 57.0954 50.7434 57.1287 50.6551 57.1519C50.4802 57.1991 50.3161 57.2572 50.1566 57.3091C50.0761 57.3331 50.0026 57.3671 49.9282 57.3919C49.8539 57.419 49.7804 57.4422 49.713 57.4724C49.576 57.5258 49.4491 57.5761 49.3392 57.6249C49.2246 57.6706 49.1294 57.7178 49.0458 57.7534C48.9691 57.7929 48.901 57.8192 48.86 57.8424C48.8151 57.8641 48.7919 57.8757 48.7919 57.8757Z" fill="black"/>
<path d="M67.8786 61.0627C67.8786 61.0627 67.8174 60.9783 67.6851 60.8529C67.6162 60.7933 67.5364 60.7136 67.4343 60.6393C67.3329 60.5627 67.2121 60.4829 67.079 60.4016C66.9435 60.3211 66.7918 60.2429 66.6261 60.1694C66.4589 60.099 66.2824 60.0239 66.0912 59.972C65.9039 59.9078 65.7034 59.8652 65.499 59.8249C65.2947 59.7824 65.0826 59.7715 64.872 59.7468C64.6599 59.7398 64.4494 59.7351 64.2411 59.7421C64.0337 59.7568 63.8301 59.7777 63.6342 59.8033C63.4407 59.8396 63.2549 59.8807 63.0792 59.9202C62.9058 59.9635 62.7464 60.0262 62.5985 60.0765C62.4514 60.1299 62.3167 60.1772 62.2045 60.2375C62.0899 60.294 61.9924 60.3475 61.9134 60.3908C61.7524 60.4775 61.6665 60.534 61.6665 60.534C61.6665 60.534 61.7741 60.5363 61.9537 60.5263C62.0427 60.5208 62.1519 60.5154 62.2749 60.5038C62.3957 60.4891 62.5343 60.4868 62.6852 60.479C62.8338 60.4736 62.9925 60.4535 63.1636 60.4496C63.3323 60.4465 63.5081 60.4419 63.6892 60.4318C63.8719 60.4334 64.06 60.4365 64.2496 60.4318C64.4385 60.4388 64.629 60.4481 64.8217 60.4558C64.9169 60.4643 65.0121 60.4721 65.1073 60.4798C65.2018 60.4883 65.297 60.4914 65.3907 60.5077C65.4836 60.5216 65.5764 60.5309 65.6686 60.541C65.7615 60.5495 65.8505 60.5712 65.9387 60.5836C66.1191 60.6075 66.2886 60.6447 66.4543 60.6757C66.5371 60.6881 66.613 60.7128 66.6904 60.7275C66.7678 60.7453 66.8444 60.7593 66.9141 60.7794C67.0565 60.8166 67.1897 60.8491 67.3058 60.8831C67.425 60.9149 67.5248 60.9489 67.61 60.9737C67.6928 61.0031 67.7633 61.0201 67.8082 61.0379C67.8538 61.0534 67.8786 61.0627 67.8786 61.0627Z" fill="black"/>
<path d="M73.068 66.9538C73.068 66.9538 73.4202 66.3044 74.0906 65.0658C76.5986 60.4267 77.6576 54.9833 76.3045 49.8866C75.5768 47.1464 74.0782 45.8134 72.8582 45.167C71.608 44.5059 65.9231 40.9157 62.5109 39.8792C56.3515 38.0082 49.7918 39.9558 45.1829 43.1559C40.5739 46.356 34.5615 56.8403 39.5467 56.9479C44.5319 57.0563 52.1094 50.043 49.8576 51.8505C46.6343 54.4391 49.7895 54.7131 57.0033 54.96C64.2162 55.2062 68.4931 52.6966 68.4931 52.6966C68.4931 52.6966 68.2214 54.9043 69.2842 58.1748C70.3463 61.4462 73.294 65.1719 73.294 65.1719" fill="#361710"/>
<path d="M50.4842 82.1698L52.2383 126.751C52.2383 126.751 52.1865 134.847 46.0533 136.787C39.9202 138.727 37.0986 138.144 37.0986 138.144C37.0986 138.144 43.7651 109.409 42.4283 102.974C41.0914 96.5385 39.0432 86.257 39.0432 86.257L50.4842 82.1698Z" fill="#122738"/>
<path d="M65.8392 82.0506L63.2552 126.751C63.2552 126.751 63.3071 134.847 69.4402 136.787C75.5734 138.727 78.3949 138.144 78.3949 138.144C78.3949 138.144 71.7277 109.409 73.0645 102.974C74.4022 96.5385 76.4504 86.2578 76.4504 86.2578L65.8392 82.0506Z" fill="#122738"/>
<path d="M83.3352 94.816C83.3352 94.816 95.7099 109.468 95.7323 114.078C95.754 118.688 89.2625 117.233 89.2625 117.233L77.5342 100.492L83.3352 94.816Z" fill="#EDAC7C"/>
<path d="M83.3352 94.8159L77.5342 100.492L82.1965 107.147C82.1965 107.147 84.9616 103.024 89.9715 103.334C86.7335 98.8404 83.3352 94.8159 83.3352 94.8159Z" fill="#CF9166"/>
<path d="M38.3305 96.2083C38.3305 96.2083 21.7982 105.929 17.2512 105.171C12.7034 104.414 15.2347 98.2619 15.2347 98.2619L33.7169 89.5317L38.3305 96.2083Z" fill="#EDAC7C"/>
<path d="M24.6299 103.228C30.8993 100.576 38.3305 96.2088 38.3305 96.2088L33.717 89.5322L24.6252 93.8261C24.6252 93.8261 27.9964 101.157 24.6299 103.228" fill="#CF9166"/>
<path d="M92.9363 117.32C92.9696 117.301 93.0029 117.281 93.0361 117.261C94.3374 116.474 95.2957 115.202 95.9506 113.827C97.3447 110.902 98.0817 107.514 99.1422 104.446C99.9674 102.055 100.717 99.4776 101.728 97.0725C101.573 97.002 101.427 96.9115 101.298 96.7899C100.012 95.5862 99.3798 94.7695 97.8998 93.8128C97.4756 97.506 92.2922 104.757 90.1287 110.519C89.7014 111.658 89.329 112.837 89.2872 114.052C89.2098 116.338 90.4522 118.756 92.9363 117.32Z" fill="#EEC9B1"/>
<path d="M90.1886 118.27C90.8334 118.657 91.9063 118.941 93.3817 118.09L93.4963 118.022C94.8207 117.221 95.9463 115.902 96.7537 114.21C97.6973 112.231 98.346 110.057 98.9738 107.954C99.2927 106.883 99.6232 105.775 99.9824 104.737C100.235 104.007 100.479 103.26 100.726 102.507C101.283 100.812 101.857 99.0602 102.548 97.4168L102.883 96.6179L102.093 96.2611C102.017 96.2262 101.956 96.1875 101.906 96.1411C101.565 95.8221 101.271 95.5303 100.995 95.2571C100.214 94.483 99.5404 93.8141 98.3823 93.0656L97.1794 92.2876L97.0153 93.7112C96.7978 95.6116 95.0909 98.7498 93.2842 102.073C91.8002 104.8 90.2675 107.619 89.296 110.207C88.878 111.319 88.4445 112.642 88.3981 114.022C88.3339 115.911 89.0367 117.578 90.1886 118.27Z" fill="#EDAC7C"/>
<path d="M100.818 94.6086C100.82 94.6031 101.802 91.6368 102.181 91.5215C102.561 91.4061 103.234 91.6755 103.234 91.6755L102.098 95.9292C102.098 95.9292 103.682 92.3683 104.3 92.0626C104.917 91.756 105.608 92.0796 105.608 92.0796L103.719 96.9773C103.719 96.9773 104.836 93.4397 105.496 92.8831C106.157 92.3281 106.94 92.5642 106.94 92.5642L105.345 97.8458L105.202 97.1778C105.202 97.1778 106.292 95.3068 106.959 95.1644C107.626 95.0204 108.267 95.1814 108.267 95.1814C108.267 95.1814 107.068 97.0849 106.551 98.3079C106.034 99.531 105.096 99.757 105.096 99.757C102.993 99.113 101.199 97.5424 99.4699 96.2001C98.133 95.1613 97.1793 92.2871 97.1793 92.2871C97.1793 92.2871 98.993 90.6088 100.818 94.6086Z" fill="#EDAC7C"/>
<path d="M15.6835 103.334C15.6588 103.304 15.634 103.275 15.61 103.245C14.6555 102.06 14.1888 100.538 14.0417 99.0219C13.7297 95.7978 14.1926 92.3609 14.243 89.1143C14.2824 86.5861 14.4581 83.907 14.3289 81.3014C14.4976 81.2882 14.6664 81.2526 14.8289 81.183C16.4483 80.4894 17.3215 79.9382 19.0392 79.5442C18.1777 83.16 20.575 91.7439 20.6431 97.8987C20.6563 99.1156 20.6037 100.35 20.2282 101.508C19.5215 103.683 17.5282 105.533 15.6835 103.334Z" fill="#EEC9B1"/>
<path d="M17.942 105.164C17.2035 105.308 16.0989 105.21 15.002 103.906L14.9169 103.802C13.9454 102.597 13.337 100.974 13.1558 99.1071C12.9445 96.9249 13.0769 94.6607 13.2046 92.4708C13.2696 91.3545 13.337 90.2004 13.354 89.1004C13.3656 88.3294 13.3904 87.5437 13.4151 86.7518C13.4709 84.9683 13.5282 83.1252 13.4407 81.3448L13.3973 80.4793L14.2612 80.4135C14.3456 80.4081 14.416 80.3919 14.4787 80.3648C14.9084 80.1821 15.283 80.0079 15.6368 79.8446C16.6346 79.3832 17.4962 78.9853 18.84 78.6765L20.2364 78.3552L19.9051 79.7501C19.4608 81.6103 19.9949 85.1432 20.5592 88.8829C21.0229 91.9521 21.5021 95.1259 21.533 97.8902C21.5462 99.0777 21.5021 100.468 21.0748 101.782C20.4903 103.58 19.2611 104.907 17.942 105.164Z" fill="#EDAC7C"/>
<path d="M16.0238 79.2963C16.0238 79.2901 16.1136 76.1667 15.797 75.929C15.4788 75.6914 14.7535 75.7138 14.7535 75.7138L14.3703 80.1006C14.3703 80.1006 14.097 76.2131 13.6202 75.7146C13.1441 75.2161 12.3848 75.2842 12.3848 75.2842L12.4893 80.5325C12.4893 80.5325 12.6464 76.8262 12.2152 76.0784C11.7841 75.3306 10.9682 75.285 10.9682 75.285L10.6647 80.7942L11.027 80.2152C11.027 80.2152 10.6407 78.0856 10.0625 77.7226C9.48423 77.3603 8.82703 77.2922 8.82703 77.2922C8.82703 77.2922 9.30387 79.4914 9.37276 80.8174C9.44166 82.1434 10.2459 82.6752 10.2459 82.6752C12.4436 82.7883 14.6652 81.9236 16.7491 81.2509C18.36 80.7315 20.2364 78.355 20.2364 78.355C20.2364 78.355 19.1046 76.1589 16.0238 79.2963Z" fill="#EDAC7C"/>
<path d="M76.4501 86.2567C76.4501 86.2567 86.5265 94.3111 88.9293 99.0261L78.3366 106.673L70.3193 94.8166L76.4501 86.2567Z" fill="#122738"/>
<path d="M39.0444 86.2562C39.0444 86.2562 30.3784 90.5029 25.2013 93.2509L29.8706 104.68L44.6682 99.2246L39.0444 86.2562Z" fill="#122738"/>
<path d="M59.2408 243.585C57.8072 243.885 55.5964 243.048 53.9367 245.616C52.3375 248.092 48.5777 248.053 48.3068 248.048C50.8187 248.37 53.7881 248.212 54.5413 247.116C55.687 245.451 58.4489 245.115 58.4489 245.115C60.0459 245.115 61.3254 243.797 61.2767 242.202C61.2736 242.109 61.2713 242.007 61.2689 241.911C60.7526 242.619 60.0149 243.424 59.2408 243.585Z" fill="#1C0906"/>
<path d="M210.969 44.8025L212.161 45.2251C213.427 45.6733 214.09 47.0636 213.642 48.33L213.208 49.5531C212.76 50.8187 211.37 51.4821 210.103 51.0331L208.911 50.6112C207.645 50.1623 206.982 48.772 207.431 47.5056L207.864 46.2833C208.312 45.0169 209.702 44.3543 210.969 44.8025ZM224.737 12.2472C227.835 13.3441 229.785 15.2855 230.587 18.07C231.23 20.2707 231.133 22.5527 230.295 24.9168C228.895 28.8701 225.772 31.9959 220.928 34.2934C219.239 35.0946 218.062 36.3053 217.395 37.9277C217.16 38.4634 216.922 39.0672 216.684 39.7399C216.236 41.0063 214.845 41.6689 213.58 41.2207L212.388 40.7981C211.121 40.3499 210.458 38.9596 210.907 37.6932C212.184 34.0859 214.02 31.7211 216.414 30.5955C219.001 29.3787 221.004 27.8986 222.425 26.1538C223.244 25.1366 223.882 23.9856 224.336 22.7021C224.806 21.3777 224.878 20.2335 224.555 19.2706C224.212 18.1628 223.391 17.47 222.091 17.1929C220.879 16.9243 219.758 17.4337 218.728 18.7202C218.677 18.7821 218.626 18.8456 218.576 18.9114C217.84 19.8659 216.51 20.1314 215.461 19.5376L214.432 18.9563C213.158 18.2364 212.8 16.5589 213.674 15.3854C214.542 14.2196 215.588 13.2814 216.812 12.5708C218.139 11.8021 219.725 11.4693 221.57 11.5722C222.54 11.6187 223.596 11.8432 224.737 12.2472Z" fill="#FCC822"/>
<path d="M127.699 48.4003L129.441 48.7409C131.293 49.1031 132.5 50.8983 132.137 52.7483L131.788 54.5365C131.425 56.3873 129.631 57.5942 127.78 57.2319L126.037 56.8913C124.186 56.529 122.979 54.7347 123.341 52.8838L123.691 51.0956C124.054 49.2448 125.847 48.0372 127.699 48.4003ZM140.119 0.345394C144.648 1.23173 147.756 3.52614 149.445 7.22785C150.79 10.1524 151.125 13.3424 150.449 16.7979C149.318 22.5789 145.624 27.5625 139.369 31.7519C137.188 33.2126 135.801 35.137 135.21 37.5266C134.992 38.32 134.787 39.2079 134.595 40.191C134.233 42.0419 132.439 43.2495 130.587 42.8864L128.844 42.5458C126.993 42.1835 125.786 40.3892 126.148 38.5383C127.181 33.2644 129.243 29.6007 132.337 27.5454C135.679 25.323 138.158 22.8537 139.772 20.1374C140.7 18.5559 141.348 16.8266 141.715 14.9494C142.095 13.0134 141.96 11.4095 141.311 10.1377C140.608 8.67075 139.326 7.87731 137.462 7.76042C135.722 7.63657 134.27 8.57399 133.106 10.5735C133.048 10.6702 132.99 10.7693 132.933 10.8707C132.107 12.3485 130.315 12.9902 128.735 12.3825L127.186 11.7865C125.269 11.0488 124.426 8.79229 125.399 6.98246C126.364 5.18424 127.625 3.66547 129.179 2.42692C130.863 1.0862 132.997 0.297398 135.581 0.060524C136.938 -0.0757141 138.45 0.0187263 140.119 0.345394Z" fill="#FCC822"/>
<path d="M99.5961 79.3506L100.821 79.0363C102.122 78.7019 103.448 79.4861 103.782 80.7866L104.104 82.0437C104.439 83.3442 103.655 84.6702 102.353 85.0038L101.128 85.3189C99.8275 85.6525 98.5015 84.8691 98.1679 83.5671L97.8451 82.3107C97.5107 81.0103 98.2948 79.685 99.5961 79.3506ZM92.8623 44.6504C96.0453 43.8329 98.7461 44.3562 100.966 46.2187C102.727 47.6871 103.919 49.6348 104.543 52.0646C105.586 56.1271 104.738 60.4635 102 65.0725C101.044 66.6795 100.743 68.3415 101.095 70.0592C101.198 70.6351 101.338 71.2691 101.515 71.9604C101.849 73.2616 101.065 74.5868 99.7641 74.9205L98.5395 75.2355C97.2382 75.5692 95.913 74.7858 95.5786 73.4845C94.6272 69.7782 94.8308 66.7902 96.1901 64.5221C97.6585 62.069 98.4953 59.7227 98.7012 57.4817C98.8135 56.1805 98.7005 54.8699 98.3622 53.5509C98.0123 52.19 97.4348 51.2 96.6282 50.5807C95.7264 49.8531 94.6589 49.7362 93.4243 50.2316C92.2685 50.6852 91.6222 51.7326 91.4859 53.3744C91.4782 53.4549 91.4712 53.5354 91.4658 53.6182C91.3876 54.822 90.4324 55.7834 89.2302 55.8763L88.0521 55.9676C86.5929 56.0799 85.3605 54.8877 85.431 53.4263C85.5014 51.9748 85.8459 50.6124 86.4659 49.3398C87.1386 47.9619 88.2688 46.8008 89.8572 45.8572C90.6878 45.354 91.6887 44.9515 92.8623 44.6504Z" fill="#FCC822"/>
<path d="M287.165 79.5159L288.39 79.2016C289.691 78.8672 291.017 79.6513 291.35 80.9518L291.673 82.2089C292.008 83.5102 291.224 84.8354 289.923 85.1698L288.697 85.4841C287.396 85.8185 286.07 85.0344 285.737 83.7331L285.414 82.4768C285.08 81.1763 285.864 79.8503 287.165 79.5159ZM280.431 44.8164C283.614 43.999 286.315 44.5223 288.535 46.3847C290.295 47.8532 291.487 49.8008 292.111 52.2299C293.155 56.2931 292.307 60.6296 289.568 65.2385C288.613 66.8455 288.311 68.5067 288.664 70.2252C288.767 70.8011 288.907 71.4351 289.084 72.1256C289.418 73.4269 288.634 74.7529 287.334 75.0865L286.108 75.4016C284.807 75.7352 283.482 74.9518 283.147 73.6506C282.196 69.9442 282.4 66.9562 283.759 64.6874C285.227 62.235 286.064 59.8888 286.27 57.647C286.382 56.3458 286.269 55.036 285.931 53.7169C285.581 52.3553 285.004 51.366 284.197 50.7467C283.295 50.0191 282.228 49.9022 280.994 50.3976C279.838 50.8505 279.191 51.8978 279.055 53.5404C279.047 53.6202 279.04 53.7015 279.035 53.7843C278.956 54.9872 278.001 55.9494 276.799 56.0423L275.621 56.1336C274.163 56.2459 272.929 55.053 273 53.5923C273.07 52.1401 273.415 50.7777 274.035 49.5051C274.707 48.1272 275.838 46.9669 277.426 46.0232C278.257 45.5201 279.258 45.1175 280.431 44.8164Z" fill="#FCC822"/>
<path d="M148.425 125.489L153.589 103.683L144.199 103.329L139.266 123.458C138.917 124.879 138.999 126.37 139.498 127.744L148.472 152.439L159.219 151.401L148.425 125.489Z" fill="#A7A6BB"/>
<path d="M144.18 122.578C145.137 120.653 146.067 118.932 146.968 117.415C148.215 115.189 149.792 113.301 151.683 111.735L153.59 103.683L144.199 103.329L139.266 123.458C139.023 124.451 139.002 125.476 139.174 126.473C141.271 126.015 143.149 124.65 144.18 122.578Z" fill="#727293"/>
<path d="M157.575 197.427L157.346 198.487L156.146 204.056L150.832 228.708L150.253 231.386L150.124 231.99L149.055 243.698L147.796 244.079C144.601 245.05 141.336 244.84 138.488 243.671C137.321 243.193 136.132 242.028 135.303 241.102C134.364 240.053 133.605 238.849 133.016 237.57C131.327 233.896 130.936 229.71 130.847 225.714C130.817 224.364 130.825 223.013 130.825 221.661V208.415V196.833V192.625C131.801 192.625 132.896 192.503 133.68 192.449C134.385 192.404 135.652 192.168 136.378 192.168C139.225 191.191 142.162 191.458 144.91 191.123C146.215 190.965 147.478 190.889 148.667 190.84C150.324 190.774 151.839 190.873 153.132 191.193C155.844 191.868 157.575 193.648 157.575 197.427Z" fill="#1C1B2D"/>
<path d="M178.891 234.181L150.622 243.224L149.055 243.699L147.796 244.079C144.601 245.049 141.337 244.84 138.488 243.672C137.746 243.254 137.044 242.767 136.395 242.222C136.39 242.219 136.388 242.214 136.383 242.209C134.193 240.188 132.662 237.456 132.135 234.376L148.494 229.416L150.832 228.708L175.136 221.797L178.891 234.181Z" fill="#1C1B2D"/>
<path d="M193.862 236.221C193.498 234.644 192.864 232.692 192.723 232.076C192.183 229.712 191.384 227.405 190.705 225.079C190.457 224.228 190.154 223.64 190.049 223.454C189.996 223.368 190.004 223.372 190.049 223.454C190.125 223.578 190.323 223.883 190.711 224.414C190.001 223.444 189.431 222.529 188.961 221.428C188.432 220.185 188.025 218.94 187.719 217.701L170.242 222.92L174.199 236.173L182.399 233.724C182.905 233.573 183.437 233.861 183.588 234.366L184.432 237.194C184.694 238.069 185.071 238.878 185.525 239.624C186.001 239.458 186.486 239.32 186.982 239.213C189.149 238.746 191.215 237.979 193.289 237.236C193.465 236.891 193.654 236.551 193.862 236.221Z" fill="#361710"/>
<path d="M177.757 224.963C179.293 224.504 180.91 225.378 181.369 226.913C181.827 228.449 180.954 230.066 179.418 230.525C177.883 230.984 176.265 230.11 175.806 228.575C175.348 227.039 176.221 225.422 177.757 224.963Z" fill="white"/>
<path d="M184.508 237.425C186.242 242.777 191.938 245.792 197.356 244.174C197.862 244.022 198.15 243.49 197.999 242.985L195.37 234.182L184.508 237.425Z" fill="white"/>
<path d="M193.817 244.594C194.98 244.657 196.175 244.526 197.357 244.173C197.862 244.022 198.15 243.49 197.999 242.984L190.498 217.869C190.348 217.363 189.815 217.075 189.309 217.226L185.944 218.23L193.817 244.594Z" fill="white"/>
<path d="M178.6 154.954L177.077 158.074L169.094 174.425L155.954 201.339L131.171 191.302L138.759 174.048L144.202 161.678L152.536 142.729L178.6 154.954Z" fill="#A7A6BB"/>
<path d="M174.152 160.314C173.875 160.314 173.351 159.935 172.725 159.405C171.362 166.573 164.343 172.19 157.055 172.19C150.851 172.19 145.774 168.654 143.128 163.603L137.656 176.556L143.454 185.383C144.682 187.206 147.087 187.818 149.039 186.801L167.99 176.935L175.973 160.584C175.387 160.406 174.772 160.314 174.152 160.314Z" fill="#727293"/>
<path d="M166.048 164.249C164.613 164.249 163.246 164.041 161.947 163.688L146.041 196.268L131.566 190.405L131.171 191.302L155.954 201.34L175.729 160.836C172.955 162.961 169.533 164.249 166.048 164.249Z" fill="#727293"/>
<path d="M183.394 133.183C183.394 133.183 187.241 130.943 188.717 134.022C190.194 137.102 184.206 142.361 180.355 139.013L183.394 133.183Z" fill="#EDAC7C"/>
<path d="M182.243 135.393L180.677 138.394C184.268 140.642 188.64 136.14 187.159 134.679C185.962 133.497 183.417 134.67 182.243 135.393Z" fill="#F7A588"/>
<path d="M187.334 136.045C187.334 136.045 187.337 136.018 187.343 135.967C187.349 135.918 187.353 135.846 187.36 135.757C187.365 135.579 187.355 135.315 187.229 135.078C187.198 135.018 187.156 134.964 187.111 134.914C187.086 134.889 187.063 134.864 187.034 134.839L187.015 134.823L187.014 134.822C187.028 134.836 187.017 134.825 187.019 134.828L187.017 134.825L187.009 134.82L186.996 134.81L186.941 134.77C186.902 134.739 186.871 134.72 186.841 134.702C186.81 134.683 186.776 134.664 186.737 134.646C186.701 134.628 186.663 134.609 186.625 134.596C186.585 134.579 186.547 134.562 186.505 134.551C186.179 134.447 185.792 134.436 185.403 134.479C185.206 134.497 185.011 134.536 184.817 134.576C184.624 134.619 184.432 134.666 184.249 134.717C183.88 134.822 183.536 134.938 183.239 135.038C182.641 135.251 182.242 135.393 182.242 135.393C182.242 135.393 182.318 135.317 182.461 135.196C182.607 135.078 182.819 134.914 183.092 134.744C183.229 134.661 183.379 134.569 183.544 134.486C183.709 134.401 183.887 134.318 184.077 134.243C184.457 134.093 184.883 133.965 185.333 133.916C185.559 133.893 185.789 133.886 186.019 133.912C186.248 133.937 186.477 133.994 186.686 134.086C186.738 134.108 186.788 134.133 186.838 134.161C186.889 134.186 186.934 134.218 186.98 134.249C187.026 134.278 187.07 134.312 187.114 134.35C187.159 134.387 187.201 134.423 187.228 134.455L187.276 134.507L187.305 134.537L187.331 134.569C187.366 134.609 187.395 134.652 187.422 134.696C187.473 134.785 187.512 134.876 187.536 134.965C187.588 135.143 187.583 135.308 187.563 135.445C187.545 135.582 187.505 135.694 187.471 135.781C187.436 135.869 187.398 135.935 187.374 135.979C187.348 136.022 187.334 136.045 187.334 136.045Z" fill="#CF9166"/>
<path d="M159.966 123.486C159.966 123.486 158.828 119.184 155.608 120.319C152.386 121.453 152.905 129.407 157.997 129.76L159.966 123.486Z" fill="#EDAC7C"/>
<path d="M159.22 125.864L158.205 129.093C154.077 128.147 154.166 121.873 156.247 121.885C157.928 121.894 158.9 124.524 159.22 125.864Z" fill="#F7A588"/>
<path d="M155.157 122.726C155.157 122.726 155.173 122.706 155.205 122.667C155.236 122.626 155.283 122.573 155.343 122.506C155.464 122.375 155.657 122.195 155.915 122.116C155.978 122.097 156.045 122.088 156.115 122.085C156.149 122.085 156.184 122.082 156.218 122.087L156.246 122.089H156.248C156.227 122.088 156.244 122.088 156.24 122.088L156.243 122.089L156.252 122.09L156.269 122.092L156.337 122.102C156.385 122.107 156.421 122.118 156.455 122.126C156.491 122.133 156.528 122.144 156.568 122.16C156.607 122.171 156.645 122.186 156.683 122.203C156.722 122.219 156.76 122.235 156.798 122.257C157.103 122.412 157.385 122.678 157.63 122.984C157.755 123.136 157.867 123.301 157.976 123.467C158.082 123.634 158.185 123.802 158.278 123.969C158.465 124.304 158.627 124.628 158.767 124.908C159.038 125.483 159.22 125.864 159.22 125.864C159.22 125.864 159.22 125.756 159.203 125.57C159.186 125.385 159.151 125.117 159.077 124.805C159.04 124.648 158.997 124.478 158.939 124.302C158.882 124.126 158.816 123.941 158.735 123.753C158.572 123.38 158.362 122.989 158.078 122.634C157.935 122.459 157.774 122.291 157.594 122.147C157.414 122.003 157.213 121.881 157 121.8C156.948 121.776 156.893 121.761 156.839 121.746C156.786 121.727 156.732 121.715 156.676 121.707C156.625 121.695 156.569 121.688 156.51 121.684C156.452 121.678 156.397 121.674 156.355 121.678L156.287 121.679L156.243 121.681L156.203 121.684C156.149 121.688 156.097 121.699 156.047 121.711C155.949 121.739 155.858 121.775 155.776 121.82C155.615 121.91 155.502 122.031 155.42 122.14C155.334 122.25 155.285 122.357 155.247 122.445C155.209 122.532 155.19 122.605 155.176 122.653C155.163 122.701 155.157 122.726 155.157 122.726Z" fill="#CF9166"/>
<path d="M170.308 139.569L163.965 136.943C163.965 136.943 159.61 146.774 159.587 146.764C159.587 146.764 159.233 148.938 162.029 150.146C164.825 151.355 166.375 149.573 166.375 149.573C166.374 149.509 170.308 139.569 170.308 139.569Z" fill="#EDAC7C"/>
<path d="M168.269 144.848L161.497 142.495C161.497 142.495 159.986 145.956 159.962 145.946C159.962 145.946 159.701 147.683 162.496 148.893C165.293 150.101 166.751 148.605 166.751 148.605C166.75 148.541 168.269 144.848 168.269 144.848Z" fill="#CF9166"/>
<path d="M169.551 141.395L163.209 138.769C163.209 138.769 162.604 140.004 162.084 141.054C162.008 141.205 163.716 142.235 163.901 142.348C165.352 143.238 166.964 143.67 168.633 143.912C169.041 142.786 169.551 141.395 169.551 141.395Z" fill="#CF9166"/>
<path d="M186.161 123.234C180.596 123.234 175.934 120.393 173.122 116.162H157.792C157.509 117.085 157.252 118.09 157.029 119.204C155.344 127.597 157.544 138.518 166.008 142.022C174.474 145.526 184.412 139.801 187.684 131.893C188.878 129.008 189.067 125.949 188.426 123.054C187.677 123.171 186.92 123.234 186.161 123.234Z" fill="#3E150D"/>
<path d="M186.135 131.024C187.806 126.554 187.633 121.608 183.987 118.096C182.133 116.31 179.798 115.072 177.413 114.13C175.056 113.199 172.501 112.319 169.95 112.256C165.379 112.144 165.108 114.422 163.042 118.28C162.838 118.658 159.395 119.492 159.218 119.881C158.81 120.776 158.37 121.642 158.026 122.567C157.254 124.647 156.73 126.836 156.593 129.058C156.427 131.752 156.874 134.502 158.179 136.915C158.921 138.287 159.92 139.515 161.085 140.561C163.009 142.286 165.045 143.436 167.579 143.977C169.297 144.344 171.07 144.467 172.805 144.238C175.685 143.861 178.288 142.5 180.372 140.544C182.124 138.896 183.512 136.889 184.599 134.759C185.195 133.592 185.725 132.376 186.106 131.124C186.116 131.09 186.123 131.056 186.135 131.024Z" fill="#EDAC7C"/>
<path d="M174.819 130.017C174.252 131.249 174.709 132.67 175.841 133.189C176.974 133.709 178.351 133.131 178.919 131.899C179.486 130.667 179.028 129.248 177.896 128.728C176.764 128.208 175.386 128.785 174.819 130.017Z" fill="#CF9166"/>
<path d="M174.992 129.129C174.424 130.36 174.883 131.78 176.014 132.301C177.148 132.821 178.525 132.243 179.092 131.011C179.66 129.78 179.203 128.359 178.07 127.839C176.938 127.32 175.559 127.897 174.992 129.129Z" fill="black"/>
<path d="M175.974 128.848C175.768 129.294 175.971 129.825 176.425 130.032C176.879 130.241 177.413 130.05 177.619 129.603C177.824 129.157 177.622 128.627 177.169 128.418C176.715 128.209 176.18 128.401 175.974 128.848Z" fill="white"/>
<path d="M162.052 125.299C161.484 126.531 161.942 127.951 163.074 128.47C164.207 128.99 165.585 128.411 166.151 127.181C166.719 125.95 166.261 124.529 165.129 124.009C163.998 123.491 162.619 124.066 162.052 125.299Z" fill="#CF9166"/>
<path d="M162.292 124.776C161.724 126.009 162.183 127.428 163.314 127.949C164.447 128.469 165.824 127.891 166.391 126.659C166.96 125.428 166.501 124.007 165.37 123.488C164.238 122.968 162.859 123.546 162.292 124.776Z" fill="black"/>
<path d="M163.273 124.497C163.068 124.942 163.269 125.473 163.724 125.681C164.177 125.891 164.713 125.699 164.919 125.252C165.123 124.805 164.923 124.275 164.468 124.066C164.014 123.859 163.479 124.05 163.273 124.497Z" fill="white"/>
<path d="M170.136 125.608C170.136 125.608 169.395 130.436 168.039 130C165.41 129.159 164.612 134.929 168.972 133.338C170.619 132.738 171.462 125.83 171.462 125.83L170.136 125.608Z" fill="#F48470"/>
<path d="M161.71 122.697C161.71 122.697 161.792 122.629 161.956 122.539C162.039 122.496 162.141 122.439 162.262 122.393C162.382 122.34 162.52 122.293 162.676 122.247C162.831 122.202 163.002 122.163 163.184 122.132C163.368 122.104 163.564 122.075 163.767 122.072C163.969 122.057 164.179 122.067 164.393 122.08C164.609 122.09 164.822 122.134 165.038 122.163C165.249 122.211 165.462 122.261 165.666 122.321C165.867 122.389 166.065 122.462 166.251 122.537C166.435 122.623 166.61 122.712 166.773 122.797C166.937 122.884 167.079 122.988 167.213 123.075C167.343 123.166 167.466 123.247 167.563 123.338C167.661 123.422 167.744 123.501 167.813 123.564C167.949 123.69 168.021 123.771 168.021 123.771C168.021 123.771 167.913 123.744 167.737 123.687C167.649 123.659 167.542 123.626 167.423 123.583C167.308 123.538 167.17 123.5 167.022 123.453C166.875 123.41 166.723 123.348 166.555 123.302C166.387 123.255 166.214 123.204 166.036 123.148C165.854 123.101 165.668 123.058 165.48 123.004C165.291 122.963 165.099 122.922 164.905 122.881C164.808 122.864 164.711 122.848 164.615 122.832C164.517 122.815 164.423 122.794 164.326 122.785C164.23 122.775 164.135 122.761 164.041 122.747C163.947 122.732 163.855 122.731 163.761 122.72C163.577 122.698 163.398 122.691 163.226 122.679C163.14 122.671 163.058 122.675 162.978 122.671C162.896 122.668 162.817 122.663 162.741 122.665C162.591 122.664 162.45 122.663 162.327 122.667C162.2 122.668 162.091 122.675 161.998 122.678C161.91 122.685 161.835 122.685 161.787 122.692C161.736 122.696 161.71 122.697 161.71 122.697Z" fill="black"/>
<path d="M181.275 126.647C181.275 126.647 181.228 126.551 181.116 126.4C181.057 126.328 180.99 126.233 180.9 126.14C180.811 126.044 180.702 125.943 180.582 125.836C180.46 125.732 180.32 125.626 180.165 125.523C180.008 125.422 179.843 125.315 179.66 125.229C179.481 125.131 179.285 125.053 179.085 124.977C178.886 124.896 178.673 124.849 178.465 124.787C178.252 124.742 178.039 124.701 177.827 124.671C177.615 124.65 177.405 124.635 177.203 124.626C177.001 124.629 176.806 124.637 176.621 124.648C176.438 124.66 176.266 124.695 176.107 124.72C175.949 124.749 175.805 124.773 175.681 124.814C175.555 124.852 175.447 124.889 175.36 124.918C175.182 124.978 175.084 125.02 175.084 125.02C175.084 125.02 175.192 125.041 175.376 125.061C175.468 125.073 175.579 125.086 175.705 125.096C175.83 125.102 175.97 125.124 176.124 125.143C176.276 125.164 176.44 125.171 176.613 125.198C176.785 125.224 176.963 125.25 177.148 125.272C177.333 125.305 177.522 125.342 177.715 125.37C177.905 125.41 178.096 125.453 178.289 125.496C178.385 125.52 178.479 125.545 178.574 125.57C178.668 125.595 178.764 125.614 178.856 125.647C178.947 125.678 179.04 125.705 179.131 125.729C179.224 125.755 179.31 125.792 179.397 125.821C179.574 125.876 179.74 125.944 179.902 126.005C179.983 126.031 180.056 126.07 180.132 126.099C180.208 126.13 180.282 126.158 180.349 126.191C180.486 126.252 180.616 126.308 180.727 126.364C180.842 126.417 180.938 126.469 181.019 126.509C181.098 126.553 181.166 126.584 181.208 126.609C181.252 126.633 181.275 126.647 181.275 126.647Z" fill="black"/>
<path d="M186.305 131.259C186.305 131.259 187.229 129.647 188.125 127.437C187.182 129.673 186.305 131.259 186.305 131.259Z" fill="#CF9166"/>
<path d="M187.541 115.455C186.63 115.545 185.682 115.525 184.771 115.544C182.583 115.592 180.394 115.528 178.206 115.568C176.904 115.592 175.604 115.649 174.306 115.751C174.195 115.759 171.183 116.067 171.276 116.028C169.031 116.335 166.795 116.726 164.558 117.069C163.691 117.202 162.839 117.275 161.996 117.313C164.527 117.849 167.806 117.694 170.093 117.471C169.97 117.509 169.861 117.538 169.727 117.584C167.365 118.386 169.317 121.015 173.462 122.782C179.199 125.228 184.398 124.259 184.398 124.259C184.398 124.259 183.471 125.941 183.269 128.906C183.132 130.936 183.635 133.421 183.964 134.787C184.118 135.416 184.233 135.808 184.233 135.808L183.478 137.164C183.478 137.164 185.147 134.345 188.121 130.676C194.32 123.03 193.668 118.593 192.471 116.436C190.79 116.348 189.121 116.031 187.541 115.455Z" fill="#361710"/>
<path d="M187.138 125.182C187.138 125.182 174.802 125.714 154.212 117.526C144.359 113.608 160.476 113.329 160.476 113.329L179.541 112.893L187.138 125.182Z" fill="#2D2C44"/>
<path d="M189.658 128.778C189.658 128.778 188.936 127.257 187.138 125.182C185.069 122.794 181.575 119.67 176.12 117.293C165.932 112.853 160.476 113.33 160.476 113.33C160.476 113.33 161.306 107.347 169.192 104.369C172.256 103.211 175.412 102.901 178.429 103.392C183.492 104.217 188.166 107.295 191.369 112.41C196.455 120.532 189.658 128.778 189.658 128.778Z" fill="#2D2C44"/>
<path d="M187.138 125.182C185.07 122.793 181.575 119.67 176.12 117.293C165.932 112.852 160.477 113.329 160.477 113.329C160.477 113.329 161.306 107.346 169.192 104.368C172.256 103.211 175.413 102.901 178.429 103.392C181.038 104.525 183.506 106.289 185.672 108.676C191.471 115.07 188.096 123.208 187.138 125.182Z" fill="#A7A6BB"/>
<path d="M185.334 133.916C185.334 133.916 176.884 137.247 173.426 139.792C172.517 140.462 172.03 142.73 169.064 142.73C165.39 142.73 165.968 140.976 163.561 139.314C162.214 138.383 159.357 137.441 158.547 136.273C156.765 133.706 156.778 125.45 156.778 125.45C156.778 125.45 154.329 131.852 156.194 137.927C156.996 140.537 158.014 147.325 167.077 147.66C175.648 147.977 176.985 145.339 178.657 143.616C180.329 141.894 185.334 133.916 185.334 133.916Z" fill="#361710"/>
<path d="M127.259 128.057L130.672 129.755C134.297 131.557 135.774 135.958 133.972 139.583L132.231 143.083C130.428 146.708 126.028 148.186 122.403 146.383L118.99 144.685C115.365 142.883 113.888 138.483 115.69 134.858L117.431 131.357C119.234 127.732 123.634 126.255 127.259 128.057Z" fill="#FCC822"/>
<path d="M135.656 150.616L134.471 148.008C134.175 147.134 134.066 146.209 134.148 145.291L134.675 139.425C134.745 138.66 134.507 137.896 134.015 137.306L129.29 131.629C128.989 131.267 128.42 131.311 128.178 131.715C128.035 131.956 128.051 132.259 128.221 132.482L130.411 135.353L128.381 133.74C127.988 133.428 127.403 133.592 127.232 134.065C127.13 134.346 127.209 134.662 127.431 134.861L130.602 137.724L127.608 135.78C127.196 135.511 126.64 135.698 126.472 136.161C126.346 136.508 126.487 136.896 126.806 137.084L129.556 138.686L126.624 137.707C126.271 137.589 125.887 137.774 125.76 138.125C125.643 138.447 125.781 138.806 126.083 138.967L127.769 139.866C128.889 140.464 129.492 141.719 129.258 142.966L128.709 145.894C128.399 147.553 128.732 149.269 129.643 150.691L131.13 153.013L135.656 150.616Z" fill="#EDAC7C"/>
<path d="M172.78 155.071L152.499 165.93C151.154 166.652 149.479 166.216 148.654 164.932L136.798 146.655L127.974 151.463L145.05 179.392C146.28 181.215 148.684 181.826 150.635 180.81L178.665 166.217C181.442 164.771 182.736 161.506 181.705 158.551C180.429 154.896 176.192 153.244 172.78 155.071Z" fill="#A7A6BB"/>
<path d="M160.809 191.216C160.809 202.264 151.853 211.223 140.802 211.223L121.457 209.496L107.637 208.261V205.036C107.637 197.403 113.825 191.216 121.457 191.216H160.809Z" fill="#2D2C44"/>
<path d="M121.06 191.217V244.899L108.936 242.391L107.389 205.037C107.389 197.404 113.248 191.217 121.06 191.217Z" fill="#2D2C44"/>
<path d="M100.355 235.268C94.7311 235.398 90.2119 239.994 90.2119 245.649C90.2119 246.177 90.64 246.605 91.1679 246.605H100.355V235.268Z" fill="white"/>
<path d="M107.724 225.749V234.306C107.724 234.833 107.296 235.261 106.769 235.261H100.598C100.281 235.261 99.9673 235.276 99.6569 235.304V243.634H121.556V225.749H107.724Z" fill="#361710"/>
<path d="M117.448 232.366C117.448 233.969 116.149 235.268 114.546 235.268C112.943 235.268 111.643 233.969 111.643 232.366C111.643 230.763 112.943 229.463 114.546 229.463C116.149 229.463 117.448 230.763 117.448 232.366Z" fill="white"/>
<path d="M90.8223 242.136C90.4283 243.233 90.2115 244.415 90.2115 245.648C90.2115 246.176 90.6396 246.603 91.1676 246.603H120.6C121.128 246.603 121.556 246.176 121.556 245.648V242.136H90.8223Z" fill="white"/>
<path d="M180.298 35.6684C189.165 40.0776 194.295 46.5955 195.683 55.2181C196.804 62.0355 195.683 68.8266 192.318 75.5945C186.688 86.9133 176.209 95.1287 160.881 100.241C155.536 102.022 151.572 105.218 148.989 109.827C148.087 111.344 147.159 113.064 146.201 114.991C144.398 118.615 139.998 120.093 136.373 118.29L132.959 116.593C129.335 114.791 127.857 110.39 129.659 106.766C134.796 96.4377 141.149 90.029 148.721 87.5349C156.902 84.8356 163.435 81.1355 168.322 76.4329C171.142 73.6872 173.468 70.4778 175.295 66.8016C177.181 63.0093 177.814 59.6134 177.196 56.613C176.575 53.176 174.371 50.8058 170.58 49.5022C167.052 48.2575 163.513 49.3714 159.966 52.8471C159.789 53.0143 159.614 53.1861 159.44 53.3634C156.89 55.9527 152.816 56.2623 149.892 54.1049L147.025 51.9909C143.476 49.3729 143.016 44.2237 146.058 41.0313C149.08 37.8583 152.551 35.4331 156.472 33.7533C160.721 31.9373 165.587 31.5185 171.069 32.4977C173.953 32.9869 177.03 34.0428 180.298 35.6684Z" fill="#FCC822"/>
<path d="M166.095 140.132C166.334 140.132 166.54 139.969 166.6 139.738C166.839 138.815 167.671 138.131 168.669 138.131C169.667 138.131 170.499 138.815 170.737 139.738C170.797 139.969 171.003 140.132 171.243 140.132C171.578 140.132 171.843 139.818 171.761 139.492C171.411 138.106 170.164 137.078 168.669 137.078C167.173 137.078 165.926 138.106 165.577 139.492C165.495 139.818 165.759 140.132 166.095 140.132Z" fill="#F05B4E"/>
<path d="M175.382 139.207C174.895 136.891 173.255 134.978 171.057 134.141C170.644 133.984 170.175 134.058 169.848 134.354C169.484 134.681 169.087 135.032 168.669 135.032C168.229 135.032 167.813 134.663 167.435 134.32C167.112 134.029 166.654 133.947 166.243 134.095C164.263 134.806 162.686 136.395 162.004 138.421C161.792 139.048 162.1 139.774 162.734 139.964C163.354 140.15 163.968 139.802 164.154 139.22C164.789 137.242 166.684 135.86 168.854 135.985C171.026 136.111 172.749 137.702 173.151 139.739C173.253 140.251 173.682 140.629 174.201 140.659H174.202C174.965 140.659 175.539 139.954 175.382 139.207Z" fill="#361710"/>
<path d="M131.171 191.302C131.171 191.302 145.671 191.69 151.985 197.047C158.299 202.404 159.734 202.5 159.734 202.5C159.734 202.5 160.651 191.719 164.067 184.72C167.485 177.721 163.178 179.636 162.317 180.688C161.456 181.74 150.646 190.821 150.646 190.821L148.507 191.217L131.171 191.302Z" fill="#727293"/>
<path d="M217.154 85.2617C217.154 85.2617 216.199 88.9255 217.771 89.7615C219.345 90.5983 223.366 91.0364 223.407 89.7615C223.446 88.4873 224.562 87.2527 222.571 86.3764C220.579 85.5009 218.23 85.2617 218.23 85.2617H217.154Z" fill="#C9BDBD"/>
<path d="M255.649 42.3067C255.608 42.3144 255.567 42.3229 255.526 42.3322C255.202 42.4019 255.012 42.4677 255.012 42.4677V42.4824C254.935 42.5103 254.857 42.535 254.782 42.5683C250.595 44.4401 250.595 48.271 250.595 48.271L253.179 55.9338C253.179 55.9338 253.901 55.9686 254.982 55.8695L254.907 90.5729L255.283 90.7881C258.087 92.3974 261.534 92.4044 264.344 90.8043L264.753 90.5729C264.753 90.5729 265.254 76.6315 265.44 57.6832C265.599 41.5543 257.935 41.8592 255.649 42.3067Z" fill="#161616"/>
<path d="M249.551 47.7779L251.099 45.7366C251.296 45.478 251.659 45.4169 251.926 45.6011C253.617 46.763 259.129 50.9803 258.376 56.0583L249.551 47.7779Z" fill="white"/>
<path d="M243.053 80.1345C243.056 80.1144 244.635 79.9371 244.731 79.9201C246.112 79.6662 247.467 79.2505 248.754 78.6885C252.73 76.9499 255.788 73.742 257.3 69.6657C258.386 66.7381 258.691 63.5705 258.572 60.4671C258.399 55.9155 257.348 50.9419 253.34 48.1598C249.926 45.7919 248.254 46.511 248.254 46.511C248.254 46.511 243.055 80.1229 243.053 80.1345Z" fill="#161616"/>
<path d="M243.982 74.3035L237.029 73.8623C237.029 73.8623 236.073 84.7329 236.046 84.7313C236.046 84.7313 236.419 86.9344 239.501 87.179C242.583 87.4213 243.488 85.202 243.488 85.202C243.466 85.14 243.982 74.3035 243.982 74.3035Z" fill="#F8D0B7"/>
<path d="M239.75 82.7261C237.468 82.5458 236.641 81.7469 236.364 81.3444C236.652 78.1543 237.029 73.8628 237.029 73.8628L243.982 74.304C243.982 74.304 243.785 78.4554 243.639 81.6346C243.45 81.8824 242.477 82.9405 239.75 82.7261Z" fill="#EFBDAC"/>
<path d="M241.008 77.7794L234.056 77.3382C234.056 77.3382 233.879 78.7238 233.724 79.9012C233.701 80.0722 235.68 80.5011 235.895 80.5491C237.579 80.9261 239.269 80.8138 240.953 80.4972C240.974 79.2827 241.008 77.7794 241.008 77.7794Z" fill="#CF9166"/>
<path d="M225.658 57.8734C225.853 56.4762 226 55.2918 227.124 53.9712C229.873 50.744 234.259 48.9017 238.469 48.9087C244.802 48.9195 251.37 51.3471 253.063 57.9725C253.643 60.2414 253.656 62.6209 253.432 64.9525C253.079 68.6294 252.094 72.3459 249.876 75.2998C247.217 78.8389 242.824 81.008 238.398 80.9669C231.638 80.9042 226.229 77.2722 224.411 71.3759C223.102 67.1316 224.324 63.8069 225.334 59.6794C225.493 59.0284 225.579 58.4339 225.658 57.8734Z" fill="#F8D0B7"/>
<path d="M255.788 65.7205C255.804 65.7407 255.823 65.7685 255.823 65.7685C255.823 65.7685 255.82 65.7391 255.813 65.6849C255.805 65.6323 255.793 65.5495 255.759 65.4488C255.724 65.3497 255.678 65.2251 255.584 65.0927C255.493 64.9604 255.362 64.811 255.155 64.6871C255.054 64.6236 254.934 64.5687 254.802 64.5222C254.735 64.5006 254.665 64.4804 254.593 64.4673L254.538 64.4557L254.476 64.4464L254.382 64.4324C254.324 64.4216 254.246 64.4162 254.164 64.4131C254.082 64.4069 254.003 64.4053 253.928 64.4084C253.85 64.4092 253.772 64.4115 253.694 64.4208C253.616 64.4286 253.537 64.4363 253.459 64.451C253.369 64.4657 253.283 64.4913 253.195 64.5129C253.201 63.9184 253.181 63.3239 253.123 62.7349C253.893 62.6257 254.755 62.7008 255.711 63.1018C259.739 64.7939 257.745 72.5178 251.389 72.8391C251.553 72.4977 251.701 72.1509 251.838 71.8002C255.244 70.8125 256.497 67.4584 255.788 65.7205Z" fill="#F8D0B7"/>
<path d="M253.813 64.9398C253.87 64.9274 253.927 64.9205 253.984 64.9135C254.042 64.9034 254.096 64.8988 254.147 64.8965C254.196 64.8926 254.248 64.8887 254.317 64.8918L254.413 64.8926L254.437 64.8934H254.449H254.455C254.449 64.8926 254.471 64.8949 254.443 64.8918H254.446L254.483 64.8949C254.534 64.8972 254.581 64.905 254.629 64.9104C254.724 64.9259 254.816 64.9483 254.901 64.9801C255.241 65.1101 255.472 65.3369 255.612 65.4979C255.682 65.58 255.736 65.6458 255.77 65.6953C255.782 65.7116 255.781 65.7093 255.789 65.7201C256.497 67.4579 255.244 70.8121 251.838 71.799C252.488 70.1456 252.871 68.3961 253.062 66.6544C253.117 66.1551 253.157 65.6543 253.179 65.1511C253.332 65.0861 253.486 65.0172 253.642 64.9777C253.699 64.9607 253.756 64.9506 253.813 64.9398Z" fill="#FFB7A1"/>
<path d="M253.694 64.4209C253.772 64.4108 253.851 64.4085 253.928 64.4077C254.004 64.4046 254.082 64.4062 254.164 64.4124C254.246 64.4162 254.324 64.4216 254.382 64.4325L254.476 64.4464L254.537 64.4557L254.592 64.4673C254.665 64.4805 254.735 64.5006 254.802 64.5223C254.934 64.5679 255.053 64.6237 255.156 64.6872C255.362 64.811 255.492 64.9596 255.584 65.0928C255.678 65.2252 255.725 65.349 255.759 65.4489C255.793 65.5495 255.805 65.6316 255.814 65.685C255.82 65.7392 255.823 65.7678 255.823 65.7678C255.823 65.7678 255.804 65.7407 255.789 65.7206C255.78 65.7097 255.782 65.7121 255.769 65.695C255.736 65.6463 255.681 65.5805 255.612 65.4984C255.471 65.3374 255.242 65.1106 254.9 64.9805C254.817 64.9488 254.724 64.9264 254.629 64.9109C254.58 64.9055 254.533 64.8977 254.483 64.8954L254.446 64.8923H254.443C254.471 64.8954 254.449 64.8931 254.454 64.8938H254.449H254.436L254.413 64.8931L254.317 64.8915C254.248 64.8884 254.196 64.8931 254.146 64.8969C254.096 64.8993 254.042 64.9039 253.984 64.914C253.926 64.9209 253.87 64.9279 253.813 64.9403C253.756 64.9511 253.698 64.9612 253.642 64.9782C253.485 65.0177 253.333 65.0866 253.179 65.1516C253.189 64.9395 253.193 64.7266 253.195 64.513C253.283 64.4913 253.37 64.4658 253.459 64.4511C253.536 64.4364 253.616 64.4286 253.694 64.4209Z" fill="#FFA792"/>
<path d="M235.431 64.7042C235.431 64.7042 235.608 67.744 234.198 67.4182C231.469 66.7911 231.15 72.6944 235.426 70.7158C237.04 69.9696 236.791 64.8172 236.791 64.8172L235.431 64.7042Z" fill="#F48470"/>
<path d="M230.72 72.7683C230.639 74.0347 229.531 74.9953 228.243 74.9133C226.955 74.8312 225.975 73.739 226.054 72.4726C226.135 71.2062 227.244 70.2463 228.532 70.3276C229.82 70.4096 230.8 71.5019 230.72 72.7683Z" fill="#FFB7A1"/>
<path d="M247.543 72.3532C247.463 73.6204 246.353 74.5803 245.064 74.4983C243.777 74.417 242.798 73.3255 242.877 72.0591C242.958 70.7927 244.067 69.8328 245.354 69.9141C246.643 69.9954 247.624 71.0884 247.543 72.3532Z" fill="#FFB7A1"/>
<path d="M226.571 62.8567C226.571 62.8567 226.636 62.7707 226.78 62.6453C226.851 62.5834 226.939 62.5044 227.049 62.4317C227.156 62.3535 227.283 62.2745 227.427 62.1948C227.57 62.1151 227.731 62.0369 227.904 61.9665C228.079 61.8983 228.266 61.8256 228.467 61.776C228.664 61.7164 228.874 61.6793 229.089 61.6444C229.304 61.6057 229.525 61.6019 229.745 61.5817C229.965 61.5825 230.186 61.5841 230.402 61.5972C230.618 61.6197 230.829 61.6475 231.03 61.6793C231.231 61.7242 231.424 61.7729 231.604 61.8201C231.787 61.8712 231.95 61.9409 232.102 61.9982C232.253 62.0586 232.392 62.1112 232.508 62.1793C232.625 62.2413 232.725 62.3001 232.807 62.3473C232.969 62.4417 233.058 62.5044 233.058 62.5044C233.058 62.5044 232.946 62.5029 232.759 62.4859C232.667 62.4781 232.554 62.4688 232.425 62.4534C232.3 62.434 232.155 62.427 231.998 62.4147C231.844 62.4046 231.679 62.3775 231.503 62.369C231.327 62.3597 231.143 62.3496 230.954 62.3326C230.764 62.3272 230.57 62.3264 230.371 62.3156C230.175 62.3179 229.976 62.3194 229.775 62.3225C229.675 62.3272 229.575 62.3334 229.476 62.3388C229.377 62.345 229.278 62.3442 229.181 62.3574C229.082 62.3682 228.986 62.3767 228.89 62.3845C228.792 62.3891 228.701 62.41 228.606 62.4201C228.419 62.4394 228.24 62.4719 228.068 62.4983C227.981 62.5099 227.9 62.5331 227.819 62.5462C227.738 62.5617 227.659 62.5741 227.585 62.5942C227.435 62.626 227.296 62.6569 227.174 62.6887C227.049 62.7173 226.943 62.7498 226.852 62.7731C226.766 62.8009 226.692 62.8164 226.646 62.8342C226.596 62.8489 226.571 62.8567 226.571 62.8567Z" fill="#161616"/>
<path d="M245.03 61.8464C245.03 61.8464 244.962 61.7628 244.815 61.6405C244.74 61.5832 244.651 61.5058 244.54 61.4361C244.43 61.3618 244.299 61.2867 244.155 61.2109C244.009 61.1366 243.846 61.0653 243.669 60.9995C243.49 60.9376 243.302 60.871 243.1 60.8292C242.901 60.7743 242.69 60.7441 242.474 60.7162C242.258 60.6845 242.037 60.6876 241.817 60.6744C241.596 60.6822 241.377 60.6915 241.161 60.7124C240.946 60.741 240.735 60.7758 240.534 60.8153C240.335 60.8656 240.144 60.9206 239.965 60.974C239.787 61.0297 239.625 61.1056 239.474 61.1668C239.325 61.2325 239.188 61.2914 239.075 61.361C238.961 61.4268 238.862 61.4895 238.783 61.5391C238.621 61.6397 238.535 61.7047 238.535 61.7047C238.535 61.7047 238.647 61.7009 238.833 61.6769C238.926 61.6668 239.039 61.6537 239.166 61.6343C239.291 61.6095 239.435 61.5987 239.591 61.5801C239.745 61.5662 239.91 61.5344 240.086 61.519C240.262 61.505 240.444 61.488 240.632 61.4648C240.822 61.4547 241.018 61.4462 241.215 61.4284C241.412 61.4238 241.611 61.4207 241.811 61.4152C241.911 61.4176 242.011 61.4199 242.111 61.4222C242.208 61.4253 242.307 61.4214 242.406 61.433C242.504 61.4408 242.601 61.4454 242.697 61.4485C242.794 61.4516 242.889 61.4686 242.981 61.4756C243.17 61.4888 243.349 61.5159 243.523 61.5375C243.61 61.5437 243.691 61.5662 243.773 61.5762C243.855 61.5886 243.934 61.5995 244.009 61.615C244.159 61.6436 244.3 61.6691 244.422 61.6978C244.548 61.7218 244.655 61.7504 244.745 61.7705C244.834 61.7969 244.907 61.81 244.955 61.8255C245.004 61.8379 245.03 61.8464 245.03 61.8464Z" fill="#050607"/>
<path d="M240.609 64.8259C240.373 65.6944 240.89 66.5745 241.759 66.792C242.628 67.0096 243.523 66.4824 243.756 65.6131C243.992 64.7453 243.477 63.8637 242.607 63.6461C241.737 63.4294 240.843 63.9573 240.609 64.8259Z" fill="#050607"/>
<path d="M241.263 64.5354C241.179 64.8497 241.393 65.1756 241.742 65.2623C242.09 65.3506 242.442 65.1663 242.527 64.8513C242.611 64.537 242.397 64.2111 242.048 64.1244C241.7 64.0362 241.349 64.2212 241.263 64.5354Z" fill="white"/>
<path d="M231.367 64.4476C231.601 65.3162 231.086 66.1971 230.216 66.4146C229.346 66.6321 228.452 66.105 228.218 65.2357C227.984 64.3671 228.499 63.4862 229.369 63.2687C230.238 63.0519 231.133 63.5799 231.367 64.4476Z" fill="#050607"/>
<path d="M230.712 64.1575C230.797 64.4718 230.582 64.7977 230.234 64.8844C229.885 64.9726 229.533 64.7884 229.449 64.4726C229.364 64.1591 229.578 63.8332 229.927 63.7465C230.275 63.6582 230.627 63.8432 230.712 64.1575Z" fill="white"/>
<path d="M246.439 57.3852C246.439 57.3852 251.892 74.0739 246.903 79.0637C246.903 79.0637 254.15 75.0918 254.809 56.879L246.439 57.3852Z" fill="#161616"/>
<path d="M253.789 60.863C255.662 60.5619 255.793 52.5748 255.509 51.4864C254.532 47.7429 249.187 45.4431 245.925 44.2192C240.785 42.2925 234.323 41.9759 229.674 45.3146C227.183 47.105 225.96 49.6239 224.798 52.3696C224.584 52.8759 222.262 59.2591 222.248 59.2591C222.249 59.2591 239.947 60.1601 239.808 60.1524L241.481 60.2375C241.481 60.2375 252.473 61.0743 253.789 60.863Z" fill="#161616"/>
<path d="M267.696 110.516H267.581C266.229 110.523 264.912 110.998 263.745 111.695C264.985 113.319 266.377 114.816 268.168 115.856C268.287 115.925 268.401 115.985 268.511 116.04C268.742 115.774 268.958 115.496 269.149 115.199C270.392 113.275 270.569 110.56 267.696 110.516Z" fill="#E8B79E"/>
<path d="M228.472 159.791C228.472 159.791 229.359 187.027 229.417 189.563C229.476 192.098 233.002 214.798 233.429 220.36C233.856 225.922 232.329 237.349 231.091 241.906L229.589 245.771C229.589 245.771 234.408 247.699 236.281 246.86C239.228 245.538 239.82 240.855 240.562 238.1C241.349 235.178 241.931 232.152 241.807 229.113C241.686 226.191 240.081 223.972 239.469 221.186C237.802 213.6 240.64 205.75 241.045 198.16C241.407 191.387 240.496 184.631 239.483 177.95C238.537 171.72 241.421 166.202 241.123 160.039C241.123 160.039 229.631 151.853 228.342 158.5" fill="#EFC8B1"/>
<path d="M230.56 243.27C230.485 243.605 231.469 243.961 231.692 244.061C233.315 244.797 235.89 245.506 237.227 243.858C238.86 241.853 239.234 238.372 239.926 235.95C240.709 233.208 241.523 230.056 241.281 227.176L241.166 225.819C241.166 225.819 244.985 228.152 244.745 231.391C244.504 234.63 241.247 240.061 241.043 243.45C240.918 245.537 239.902 247.613 238.197 248.854C235.591 250.749 231.089 250.614 228.302 249.185C227.272 248.656 226.459 246.2 227.809 245.579C229.492 244.806 232.215 236.895 231.931 236.629L231.091 241.905C231.091 241.905 230.56 243.267 230.56 243.27Z" fill="#122738"/>
<path d="M244.564 232.192C244.564 232.192 243.482 239.165 244.003 243.066L242.867 243.441L241.735 238.209L244.564 232.192Z" fill="#312E2F"/>
<path d="M254.316 232.192C254.316 232.192 253.402 242.63 253.924 246.532L252.264 246.579L251.487 238.209L254.316 232.192Z" fill="#0C1B26"/>
<path d="M237.109 159.791C237.109 159.791 239.11 187.027 239.169 189.563C239.228 192.098 242.753 214.798 243.181 220.36C243.608 225.922 242.081 237.349 240.843 241.906L239.34 245.771C239.34 245.771 244.161 247.699 246.033 246.86C248.98 245.538 249.571 240.855 250.314 238.1C251.1 235.178 251.683 232.152 251.559 229.113C251.439 226.191 249.832 223.972 249.22 221.186C247.554 213.6 250.392 205.75 250.797 198.16C251.158 191.387 250.248 184.631 249.235 177.95C248.289 171.72 251.173 166.202 250.875 160.039C250.875 160.039 238.269 151.853 236.979 158.5" fill="#F8D0B7"/>
<path d="M240.311 243.27C240.237 243.605 241.221 243.961 241.444 244.061C243.067 244.797 245.642 245.506 246.979 243.858C248.612 241.853 248.986 238.372 249.677 235.95C250.461 233.208 251.275 230.056 251.033 227.176L250.918 225.819C250.918 225.819 254.737 228.152 254.497 231.391C254.256 234.63 250.999 240.061 250.795 243.45C250.67 245.537 249.655 247.613 247.949 248.854C245.342 250.749 240.841 250.614 238.054 249.185C237.024 248.656 236.211 246.2 237.561 245.579C239.244 244.806 241.966 236.895 241.682 236.629L240.842 241.905C240.842 241.905 240.312 243.267 240.311 243.27Z" fill="#122738"/>
<path d="M249.849 101.271C250.798 96.7934 254.112 92.2162 254.315 91.2106C249.089 85.9901 244.425 84.1362 243.328 83.794L236.83 83.8227C235.091 84.5294 233.34 85.2013 231.596 85.8934C230.94 86.1527 230.328 86.2897 229.914 86.8602C229.408 87.5585 229.15 88.7552 228.817 89.5649C227.904 91.778 226.965 94.0244 226.514 96.3963C226.223 97.9274 226.586 99.577 227.206 101.271H249.849Z" fill="#F8D0B7"/>
<path d="M256.357 135.477C254.294 129.574 251.511 123.874 250.47 117.665C246.854 119.198 233.102 118.73 230.421 116.359C229.835 124.073 225.878 131.448 223.999 138.959C222.825 143.653 221.845 148.426 221.669 153.274C221.486 158.345 223.314 173.739 223.685 179.405C238.579 189.042 255.506 179.799 256.181 178.051C259.72 168.888 259.547 155.181 258.672 145.31C258.37 141.899 257.469 138.659 256.357 135.477Z" fill="#122738"/>
<path d="M223.999 138.959C223.921 139.269 223.847 139.582 223.772 139.893C229.065 142.726 249.694 144.43 257.486 139.047C257.152 137.846 256.77 136.657 256.357 135.477C254.375 129.807 251.733 124.321 250.606 118.394L247.451 118.322C244.192 118.699 239.496 118.607 235.789 118.058L231.459 117.96C231.459 117.96 229.899 129.781 224.876 135.88C224.555 136.905 224.256 137.931 223.999 138.959Z" fill="#0B1C28"/>
<path d="M236.353 95.0782C236.34 94.8552 236.313 94.6385 236.284 94.421C236.278 94.3846 236.273 94.3497 236.267 94.3126C235.886 91.7612 234.426 89.6262 232.549 88.2027C230.193 86.4981 227.683 85.0297 225.213 83.5024C220.254 80.4927 216.001 78.0698 210.983 75.1546C209.428 72.2842 207.849 69.4317 206.205 66.6249C205.374 65.2222 204.544 63.8203 203.611 62.4889C202.559 61.2627 201.793 59.843 201.043 58.3808C199.528 55.4864 198.223 52.3994 196.138 49.9014C195 48.5916 193.76 47.3987 192.464 46.2747C192.581 46.4776 196.506 53.3236 196.104 60.1836C196.104 60.1836 196.096 60.186 196.09 60.1875C196.561 60.4646 197.029 60.7565 197.5 61.0328L198.009 61.3409L198.262 61.4949C198.357 61.5437 198.437 61.6018 198.435 61.6536C198.567 61.9277 198.698 62.3921 198.814 62.7768C199.281 64.4009 199.763 66.0304 200.335 67.6134C201.472 70.7748 202.896 73.8208 204.87 76.4225C205.856 77.7137 206.965 78.9252 208.23 79.9121C209.472 80.9169 210.734 81.8969 212.004 82.8638C214.548 84.7951 216.394 86.1374 219.055 87.9008C221.72 89.6595 224.44 91.3385 227.279 92.8186C230.146 94.2429 233.077 95.5836 236.369 96.0837C236.371 96.0264 236.364 95.9715 236.366 95.9142C236.375 95.7547 236.38 95.466 236.353 95.0782Z" fill="#EFC8B1"/>
<path d="M194.259 49.9253C194.17 50.9131 193.62 53.4351 193.247 54.3322C192.537 54.2254 191.842 53.9328 191.227 53.562C190.543 53.1734 190.018 52.599 189.359 52.092C189.027 51.8513 188.669 51.6384 188.262 51.4991C187.853 51.3907 187.391 51.2583 186.85 51.6028C186.788 51.6515 186.699 51.7251 186.659 51.8652C186.606 52.0123 186.647 52.0556 186.647 52.1524C186.683 52.284 186.733 52.3931 186.786 52.4899C186.895 52.6819 187.015 52.8553 187.143 53.017C187.396 53.3445 187.668 53.6456 187.946 53.9398C189.036 55.1272 190.266 56.173 191.394 57.2885L192.227 58.1586C192.527 58.4566 192.879 58.685 193.243 58.8762C193.971 59.2593 194.752 59.4931 195.459 59.8275C195.712 59.9568 195.959 60.107 196.207 60.2556V52.695C195.244 52.4086 195.108 50.4153 194.259 49.9253Z" fill="#EFC8B1"/>
<path d="M219.081 79.8542C219.081 79.8542 220.4 81.9969 219.982 86.297C219.564 90.5979 217.772 89.7618 217.772 89.7618C217.772 89.7618 222.252 93.1663 226.732 95.5559C231.212 97.9456 231.033 86.5362 231.033 86.5362C231.033 86.5362 219.553 78.4291 219.081 79.8542Z" fill="white"/>
<path d="M230.333 117.654C230.317 117.96 230.182 118.346 230.398 118.495C237.28 123.227 250.625 118.29 250.53 117.704C250.067 114.88 249.992 111.964 250.535 109.146C251.756 102.799 256.44 96.6483 254.39 89.9686C254.382 89.9454 254.375 89.9214 254.367 89.8982C253.677 87.8406 246.879 85.4549 246.287 85.0717C246.486 85.5942 245.937 86.1972 245.749 86.4326C244.823 87.5852 243.365 88.3051 241.973 88.7138C240.358 89.1891 238.663 89.3811 236.981 89.3161C236.038 89.2789 235.092 89.1581 234.167 88.9693C233.599 88.8539 232.899 88.6728 232.52 88.206C231.824 87.3491 232.482 86.102 232.912 85.2722C232.912 85.2722 232.089 85.5803 231.034 85.6004C229.724 85.6252 225.717 82.9677 225.717 82.9677C224.98 85.2389 226.108 94.2764 225.231 96.4772C224.678 97.862 224.388 99.387 224.658 100.854C225.096 103.224 226.87 105.027 227.63 107.273C228.595 110.124 230.497 114.549 230.333 117.654Z" fill="white"/>
<path d="M230.078 114.934C230.078 114.934 228.147 129.585 221.657 134.683C216.797 138.498 247.226 142.832 256.492 135.743C256.886 135.44 256.944 134.865 256.622 134.486C256.111 133.885 255.324 132.638 254.315 130.051C252.438 125.244 250.245 115.391 250.245 115.391L230.078 114.934Z" fill="white"/>
<path d="M270.895 115.901C270.401 116.52 269.547 116.657 268.169 115.856C266.306 114.773 264.871 113.2 263.594 111.5C261.965 109.332 260.028 107.41 258.175 105.424C255.672 102.743 253.047 100.109 250.75 97.2473C248.874 94.9111 247.378 93.1361 248.255 89.8748C248.388 89.3778 248.581 88.8832 248.922 88.4931C249.438 87.9001 250.258 87.7468 251.006 87.8358C252.87 88.0596 254.117 89.3717 255.287 90.6775C256.505 92.0376 257.859 93.2901 259.135 94.5975C261.861 97.392 264.525 100.27 266.772 103.466C268.238 105.551 269.799 107.612 270.815 109.969C271.847 112.364 271.903 114.639 270.895 115.901Z" fill="#EFC8B1"/>
<path d="M267.696 110.516H267.581C266.229 110.523 264.912 110.998 263.745 111.695C264.985 113.319 266.377 114.816 268.168 115.856C268.287 115.925 268.401 115.985 268.511 116.04C268.742 115.774 268.958 115.496 269.149 115.199C270.392 113.275 270.569 110.56 267.696 110.516Z" fill="#E8B79E"/>
<path d="M268.98 111.121C268.942 111.126 268.903 111.132 268.865 111.137C267.36 111.365 265.986 112.172 264.852 113.191C262.44 115.359 260.456 118.206 258.297 120.635C256.616 122.526 254.933 124.622 253.074 126.457C253.191 126.581 253.29 126.72 253.363 126.882C254.089 128.489 254.36 129.487 255.36 130.941C257.171 127.689 264.748 122.98 268.962 118.486C269.794 117.597 270.591 116.651 271.097 115.543C272.047 113.46 271.828 110.748 268.98 111.121Z" fill="#EFC8B1"/>
<path d="M252.968 129.082C252.965 129.087 250.918 131.452 250.523 131.412C250.128 131.373 249.608 130.866 249.608 130.866L252.293 127.37C252.293 127.37 249.461 130.053 248.773 130.098C248.084 130.144 247.57 129.58 247.57 129.58L251.197 125.779C251.197 125.779 248.806 128.619 247.982 128.879C247.158 129.14 246.525 128.62 246.525 128.62L250.029 124.352L249.904 125.024C249.904 125.024 248.178 126.333 247.506 126.21C246.835 126.086 246.304 125.691 246.304 125.691C246.304 125.691 248.143 124.392 249.091 123.46C250.039 122.529 250.993 122.681 250.993 122.681C252.689 124.084 253.743 126.225 254.826 128.131C255.663 129.604 255.685 132.426 255.685 132.426C255.685 132.426 255.159 133.379 252.968 129.082Z" fill="#F8D0B7"/>
<path d="M227.252 57.2165C227.252 57.2165 224.242 63.0098 224.41 71.3762C224.41 71.3762 218.777 64.0053 226.129 53.4738L227.252 57.2165Z" fill="#161616"/>
<path d="M256.803 105.691C256.803 105.691 263.506 104.735 264.863 99.717C264.863 99.717 255.159 88.5755 250.971 87.1968C246.783 85.8189 244.951 90.6376 246.942 94.0228C248.933 97.4079 256.803 105.691 256.803 105.691Z" fill="white"/>
<path d="M225.316 96.2175C225.316 96.2175 225.606 94.7622 226.77 93.1498C227.935 91.5366 225.599 92.532 223.339 93.5786C223.339 93.5786 225.331 94.6894 225.328 95.407C225.327 95.8103 225.316 96.2175 225.316 96.2175Z" fill="#E1E4E5"/>
<path d="M235.772 74.8537C236.011 74.8537 236.217 74.6912 236.277 74.4597C236.516 73.5362 237.347 72.8535 238.345 72.8535C239.343 72.8535 240.175 73.5362 240.414 74.4597C240.473 74.6912 240.68 74.8537 240.919 74.8537C241.254 74.8537 241.519 74.5402 241.437 74.2143C241.088 72.8279 239.841 71.7999 238.345 71.7999C236.85 71.7999 235.603 72.8279 235.254 74.2143C235.172 74.5402 235.436 74.8537 235.772 74.8537Z" fill="#F05B4E"/>
</svg>
