<svg width="33" height="33" viewBox="0 0 33 33" fill="none" xmlns="http://www.w3.org/2000/svg">
<path d="M28.875 3.71235L28.2562 3.0936C26.9156 1.75298 24.6469 1.75298 23.3062 3.0936L22.0687 4.3311C19.9031 3.29985 17.4281 2.88735 14.85 3.19673C8.76562 3.9186 3.91875 8.76548 3.19687 14.8499C2.26875 22.9967 8.55937 29.9061 16.5 29.9061C18.7687 29.9061 20.9344 29.3905 22.7906 28.3592L25.0594 30.628C25.1625 30.7311 25.2656 30.8342 25.3687 30.8342H25.4719H25.575C25.6781 30.8342 25.6781 30.8342 25.7812 30.8342C25.8844 30.8342 25.8844 30.8342 25.9875 30.8342H26.0906H26.1937C26.2969 30.8342 26.4 30.7311 26.5031 30.628C26.6062 30.5249 26.7094 30.4217 26.7094 30.3186V30.2155V30.1124V30.0092V25.1624C28.6687 22.7905 29.8031 19.7999 29.8031 16.603C29.8031 14.0249 29.0812 11.7561 27.8437 9.6936L28.875 8.66235C30.2156 7.32173 30.2156 5.05298 28.875 3.71235ZM26.8125 17.5311H27.8437C27.5344 20.9342 25.6781 23.9249 22.9969 25.7811C22.5844 26.0905 22.1719 26.2967 21.7594 26.503C20.5219 27.1217 19.0781 27.6374 17.6344 27.7405V26.7092C17.6344 26.1936 17.1187 25.678 16.6031 25.678C16.0875 25.678 15.5719 26.1936 15.5719 26.7092V27.7405C10.1062 27.2249 5.775 22.8936 5.25937 17.428H6.29062C6.80625 17.428 7.32187 16.9124 7.32187 16.3967C7.32187 15.8811 6.80625 15.3655 6.29062 15.3655H5.15625C5.67187 10.003 10.0031 5.67173 15.4687 5.1561V6.18735C15.4687 6.70298 15.9844 7.2186 16.5 7.2186C17.0156 7.2186 17.5312 6.70298 17.5312 6.18735V5.1561C22.9969 5.67173 27.3281 10.003 27.8437 15.4686H26.8125C26.2969 15.4686 25.7812 15.9842 25.7812 16.4999C25.7812 17.0155 26.2969 17.5311 26.8125 17.5311Z" fill="#FCC822"/>
<path d="M16.5 7.2186V3.0936C14.5406 3.0936 12.5813 3.5061 10.9313 4.3311L9.69375 3.0936C8.35312 1.75298 6.08437 1.75298 4.74375 3.0936L4.125 3.71235C2.78438 5.05298 2.78438 7.32173 4.125 8.66235L5.05313 9.59048C3.81563 11.653 3.09375 13.9217 3.09375 16.4999C3.09375 19.6967 4.22812 22.6874 6.1875 25.0592V29.9061C6.1875 30.0092 6.1875 30.1124 6.1875 30.2155V30.3186C6.1875 30.3186 6.1875 30.3186 6.1875 30.4217C6.1875 30.5249 6.29062 30.628 6.39375 30.7311C6.49687 30.8342 6.6 30.8342 6.70312 30.9374C6.70312 30.9374 6.70312 30.9374 6.80625 30.9374H6.90937C7.0125 30.9374 7.11562 30.9374 7.21875 30.9374C7.32188 30.9374 7.425 30.9374 7.52813 30.9374H7.63125C7.63125 30.9374 7.63125 30.9374 7.73438 30.9374C7.8375 30.9374 7.94063 30.8342 8.04375 30.7311L10.3125 28.4624C12.1687 29.4936 14.3344 30.0092 16.6031 30.0092V25.8842C16.0875 25.8842 15.5719 26.3999 15.5719 26.9155V27.9467C14.025 27.8436 12.6844 27.4311 11.4469 26.7092C11.0344 26.503 10.6219 26.1936 10.2094 25.9874C7.52812 24.1311 5.67187 21.1405 5.3625 17.7374H6.39375C6.90937 17.7374 7.425 17.2217 7.425 16.7061C7.425 16.1905 6.90937 15.6749 6.39375 15.6749H5.15625C5.67188 10.003 10.0031 5.67173 15.4688 5.1561V6.18735C15.4688 6.70298 15.9844 7.2186 16.5 7.2186Z" fill="#FCC822"/>
<path d="M14.8673 13.7472C14.7227 13.0178 14.2725 12.653 13.5168 12.653C12.932 12.653 12.495 12.8798 12.2058 13.3332C11.9167 13.78 11.7754 14.5193 11.782 15.551C11.9331 15.2093 12.1828 14.9432 12.5311 14.7526C12.886 14.5555 13.2803 14.4569 13.714 14.4569C14.3908 14.4569 14.9297 14.6672 15.3305 15.0878C15.738 15.5083 15.9417 16.0899 15.9417 16.8325C15.9417 17.2793 15.853 17.6802 15.6755 18.035C15.5047 18.3899 15.2418 18.6725 14.887 18.8828C14.5387 19.093 14.1148 19.1982 13.6154 19.1982C12.9385 19.1982 12.4095 19.047 12.0284 18.7448C11.6473 18.4425 11.3811 18.0252 11.23 17.4929C11.0788 16.9606 11.0033 16.3035 11.0033 15.5215C11.0033 13.1098 11.8444 11.9039 13.5267 11.9039C14.1707 11.9039 14.6767 12.078 15.0447 12.4263C15.4127 12.7746 15.6295 13.2149 15.6953 13.7472H14.8673ZM13.5267 15.2159C13.2441 15.2159 12.978 15.275 12.7283 15.3933C12.4785 15.505 12.2748 15.6792 12.1171 15.9158C11.966 16.1458 11.8904 16.4283 11.8904 16.7635C11.8904 17.2629 12.035 17.6703 12.3241 17.9858C12.6133 18.2946 13.0273 18.449 13.5661 18.449C14.0261 18.449 14.3908 18.3078 14.6603 18.0252C14.9363 17.736 15.0743 17.3483 15.0743 16.862C15.0743 16.3495 14.9428 15.9486 14.68 15.6595C14.4171 15.3638 14.0327 15.2159 13.5267 15.2159ZM17.1518 15.5412C17.1518 14.4109 17.3358 13.5303 17.7038 12.8995C18.0718 12.262 18.7158 11.9433 19.6358 11.9433C20.5492 11.9433 21.1899 12.262 21.5579 12.8995C21.9259 13.5303 22.1099 14.4109 22.1099 15.5412C22.1099 16.6912 21.9259 17.5849 21.5579 18.2223C21.1899 18.8598 20.5492 19.1785 19.6358 19.1785C18.7158 19.1785 18.0718 18.8598 17.7038 18.2223C17.3358 17.5849 17.1518 16.6912 17.1518 15.5412ZM21.2228 15.5412C21.2228 14.9695 21.1834 14.4865 21.1045 14.0922C21.0322 13.6913 20.8778 13.3693 20.6412 13.1262C20.4112 12.883 20.0761 12.7615 19.6358 12.7615C19.1889 12.7615 18.8472 12.883 18.6107 13.1262C18.3807 13.3693 18.2262 13.6913 18.1474 14.0922C18.0751 14.4865 18.0389 14.9695 18.0389 15.5412C18.0389 16.1326 18.0751 16.6288 18.1474 17.0296C18.2262 17.4305 18.3807 17.7525 18.6107 17.9956C18.8472 18.2388 19.1889 18.3603 19.6358 18.3603C20.0761 18.3603 20.4112 18.2388 20.6412 17.9956C20.8778 17.7525 21.0322 17.4305 21.1045 17.0296C21.1834 16.6288 21.2228 16.1326 21.2228 15.5412Z" fill="#122738"/>
</svg>
